<?xml version="1.0" encoding="utf-8"?>
<!-- Generator: Adobe Illustrator 17.1.0, SVG Export Plug-In . SVG Version: 6.00 Build 0)  -->
<!DOCTYPE svg PUBLIC "-//W3C//DTD SVG 1.1//EN" "http://www.w3.org/Graphics/SVG/1.1/DTD/svg11.dtd">
<svg version="1.1" xmlns="http://www.w3.org/2000/svg" xmlns:xlink="http://www.w3.org/1999/xlink" x="0px" y="0px"
	 viewBox="0 0 140 103.9" enable-background="new 0 0 140 103.9" xml:space="preserve">
<g id="Структура">
</g>
<g id="_x31__страница">
	<g>
		<path fill="#2A2A35" d="M138.1,49.4l-15.7-11.9c-1.4-1.1-3.3-1.3-4.9-0.5c-1.6,0.8-2.6,2.4-2.6,4.2v7.3h-4.6v-7.4
			c0-2.6-2.1-4.7-4.7-4.7h-9.3V19c0-2.6-2.1-4.7-4.7-4.7H77v-5h3.9c2.6,0,4.7-2.1,4.7-4.7c0-2.6-2.1-4.7-4.7-4.7H50.6
			c-2.6,0-4.7,2.1-4.7,4.7c0,2.6,2.1,4.7,4.7,4.7h3.9v5H36.4c-2.6,0-4.7,2.1-4.7,4.7v9.2h-9.2c-2.6,0-4.7,2.1-4.7,4.7v10.7H9.4V30.3
			c0-2.6-2.1-4.7-4.7-4.7c-2.6,0-4.7,2.1-4.7,4.7v49.1c0,2.6,2.1,4.7,4.7,4.7c2.6,0,4.7-2.1,4.7-4.7V66.1h8.5v11
			c0,2.6,2.1,4.7,4.7,4.7h11.8l16.5,20.4c0.9,1.1,2.2,1.7,3.6,1.7h51.1c2.6,0,4.7-2.1,4.7-4.7V93h4.6v6.2c0,1.8,1.1,3.5,2.7,4.3
			c0.6,0.3,1.3,0.4,2,0.4c1.1,0,2.2-0.4,3.1-1.1l15.7-13.5c1-0.9,1.6-2.2,1.6-3.6V53.2C140,51.7,139.3,50.3,138.1,49.4z M64,80.2
			c-13.9,0-25.2-11.3-25.2-25.2c0-13.9,11.3-25.2,25.2-25.2S89.1,41.1,89.1,55C89.1,68.9,77.9,80.2,64,80.2z"/>
		<path fill="#1F80D0" d="M49.7,56.8l10.7-12.3c1.9-2.1,5.2-2.1,7,0l10.7,12.3c2.6,3,0.5,7.7-3.5,7.7H53.2
			C49.2,64.5,47.1,59.8,49.7,56.8z"/>
	</g>
</g>
<g id="_x32__страница" display="none">
</g>
<g id="Сетка" display="none">
</g>
</svg>
