<?xml version="1.0" encoding="utf-8"?>
<!-- Generator: Adobe Illustrator 17.1.0, SVG Export Plug-In . SVG Version: 6.00 Build 0)  -->
<!DOCTYPE svg PUBLIC "-//W3C//DTD SVG 1.1//EN" "http://www.w3.org/Graphics/SVG/1.1/DTD/svg11.dtd">
<svg version="1.1" xmlns="http://www.w3.org/2000/svg" xmlns:xlink="http://www.w3.org/1999/xlink" x="0px" y="0px"
	 viewBox="0 0 109.3 117.4" enable-background="new 0 0 109.3 117.4" xml:space="preserve">
<g id="Структура">
</g>
<g id="_x31__страница">
	<g>
		<path fill="#2A2A35" d="M20.4,78.4c0.9,3,2.1,6,3.7,8.7l-4.4,5.6c-1.4,1.8-1.3,4.4,0.3,6.1l7.6,7.6c1.6,1.6,4.3,1.8,6.1,0.3
			l5.6-4.4c2.9,1.6,5.9,2.9,9.1,3.8l0.8,7.1c0.3,2.3,2.2,4.1,4.5,4.1h10.8c2.3,0,4.3-1.7,4.5-4.1l0.8-6.9c3.4-0.9,6.7-2.2,9.7-3.9
			l5.4,4.3c1.8,1.4,4.4,1.3,6.1-0.3l7.6-7.6c1.6-1.6,1.8-4.3,0.3-6.1l-4.2-5.3c1.7-3,3.1-6.2,4-9.6l6.4-0.7c2.3-0.3,4.1-2.2,4.1-4.5
			V61.8c0-2.3-1.7-4.3-4.1-4.5l-6.4-0.7C98,53.2,96.7,50,95,47l3.9-4.9c1.4-1.8,1.3-4.4-0.3-6.1L91,28.4c-1.6-1.6-4.3-1.8-6.1-0.3
			l-4.8,3.8c-3.1-1.8-6.4-3.2-9.9-4.2l-0.7-6.2c-0.3-2.3-2.2-4.1-4.5-4.1H54.1c-2.3,0-4.3,1.7-4.5,4.1l-0.7,6.2
			c-3.6,1-7,2.4-10.2,4.3l-5-3.9c-1.8-1.4-4.4-1.3-6.1,0.3L19.9,36c-1.6,1.6-1.8,4.3-0.3,6.1l4.2,5.3c-1.7,3-2.9,6.2-3.8,9.5
			l-6.7,0.8c-2.3,0.3-4.1,2.2-4.1,4.5V73c0,2.3,1.7,4.3,4.1,4.5L20.4,78.4z M59.5,49.1c9.8,0,17.9,8,17.9,17.9
			c0,9.8-8,17.9-17.9,17.9s-17.9-8-17.9-17.9C41.6,57.2,49.7,49.1,59.5,49.1L59.5,49.1z M59.5,49.1"/>
		<path fill="#1F80D0" d="M7.6,10.4v-0.2c5.7,0,10.2-4.6,10.2-10.2L18,0c0,5.7,4.6,10.2,10.2,10.2v0.2C22.6,10.4,18,15,18,20.7h-0.2
			C17.8,15,13.2,10.4,7.6,10.4z"/>
		<path fill="#1F80D0" d="M28.9,19v-0.1c3.2,0,5.9-2.6,5.9-5.9h0.1c0,3.2,2.6,5.9,5.9,5.9V19c-3.2,0-5.9,2.6-5.9,5.9h-0.1
			C34.8,21.6,32.2,19,28.9,19z"/>
		<path fill="#1F80D0" d="M0,30l0-0.2c4.1,0,7.5-3.4,7.5-7.5h0.2c0,4.1,3.4,7.5,7.5,7.5V30c-4.1,0-7.5,3.4-7.5,7.5H7.5
			C7.5,33.4,4.1,30,0,30z"/>
	</g>
</g>
<g id="_x32__страница" display="none">
</g>
<g id="Сетка" display="none">
</g>
</svg>
