<?xml version="1.0" encoding="utf-8"?>
<!-- Generator: Adobe Illustrator 17.1.0, SVG Export Plug-In . SVG Version: 6.00 Build 0)  -->
<!DOCTYPE svg PUBLIC "-//W3C//DTD SVG 1.1//EN" "http://www.w3.org/Graphics/SVG/1.1/DTD/svg11.dtd">
<svg version="1.1" xmlns="http://www.w3.org/2000/svg" xmlns:xlink="http://www.w3.org/1999/xlink" x="0px" y="0px"
	 viewBox="0 0 107 113.6" enable-background="new 0 0 107 113.6" xml:space="preserve">
<g id="Структура">
</g>
<g id="_x31__страница">
	<g>
		<path fill="#1F80D0" d="M102.9,53.4l-6.3-0.7c-0.9-3.3-2.2-6.5-3.8-9.4l3.9-4.9c1.4-1.8,1.3-4.4-0.3-6.1l-7.6-7.6
			c-1.7-1.6-4.3-1.8-6.1-0.3L77.8,28c-3.1-1.8-6.4-3.2-9.9-4.2l-0.7-6.2c-0.3-2.3-2.2-4.1-4.5-4.1H51.8c-2.3,0-4.3,1.7-4.5,4.1
			l-0.7,6.2c-3.6,1-7,2.4-10.2,4.3l0,0c-0.4,8.1-6.8,14.7-14.9,15.4l0,0c-1.7,3-2.9,6.2-3.8,9.5L11,53.8c-2.3,0.3-4.1,2.2-4.1,4.5
			v10.8c0,2.3,1.7,4.3,4.1,4.6l7,0.8c0.9,3,2.1,6,3.7,8.7l-4.4,5.6c-1.4,1.8-1.3,4.4,0.4,6.1l7.6,7.6c1.6,1.6,4.3,1.8,6.1,0.3
			l5.6-4.4c2.9,1.7,5.9,2.9,9.1,3.8l0.8,7.1c0.3,2.3,2.2,4.1,4.6,4.1h10.8c2.3,0,4.3-1.7,4.5-4.1l0.8-6.9c3.4-0.9,6.7-2.2,9.7-3.9
			l5.4,4.3c1.8,1.4,4.4,1.3,6.1-0.3l7.6-7.6c1.6-1.6,1.8-4.3,0.3-6.1l-4.2-5.3c1.7-3,3.1-6.2,4-9.6l6.4-0.8c2.3-0.3,4.1-2.2,4.1-4.5
			V57.9C106.9,55.6,105.2,53.7,102.9,53.4z M57.2,81c-9.8,0-17.9-8-17.9-17.9c0-9.8,8-17.9,17.9-17.9c9.9,0,17.9,8,17.9,17.9
			C75,73,67,81,57.2,81z"/>
		<path fill="#2A2A35" d="M36.3,28.1c-0.4,8.1-6.8,14.7-14.9,15.4l-4.2-5.3c-1.4-1.8-1.3-4.4,0.4-6.1l7.6-7.6
			c1.6-1.6,4.3-1.8,6.1-0.3L36.3,28.1z"/>
		<path fill="#2A2A35" d="M17.3,53.1c5.5,6,5.6,15.2,0.4,21.4L11,73.8c-2.3-0.3-4.1-2.2-4.1-4.5l0-10.8c0-2.3,1.7-4.3,4.1-4.5
			L17.3,53.1z"/>
		<path fill="#2A2A35" d="M21.5,84.2c8.1,0.4,14.7,6.8,15.4,14.9l-5.2,4.2c-1.8,1.4-4.4,1.3-6.1-0.4l-7.6-7.6
			c-1.6-1.6-1.8-4.3-0.3-6.1L21.5,84.2z"/>
		<path fill="#2A2A35" d="M46.5,103.2c6-5.5,15.2-5.6,21.4-0.4l-0.8,6.7c-0.3,2.3-2.2,4.1-4.5,4.1l-10.8,0c-2.3,0-4.3-1.7-4.5-4.1
			L46.5,103.2z"/>
		<path fill="#2A2A35" d="M77.6,99c0.4-8.1,6.8-14.7,14.9-15.4l4.2,5.3c1.4,1.8,1.3,4.4-0.4,6.1l-7.6,7.6c-1.6,1.6-4.3,1.8-6.1,0.3
			L77.6,99z"/>
		<path fill="#2A2A35" d="M96.6,74c-5.5-6-5.6-15.2-0.4-21.4l6.7,0.8c2.3,0.3,4.1,2.2,4.1,4.5l0,10.8c0,2.3-1.7,4.3-4.1,4.5L96.6,74
			z"/>
		<path fill="#2A2A35" d="M92.4,42.9c-8.1-0.4-14.7-6.8-15.4-14.9l5.3-4.2c1.8-1.4,4.4-1.3,6.1,0.4l7.6,7.6c1.6,1.6,1.8,4.2,0.3,6.1
			L92.4,42.9z"/>
		<path fill="#2A2A35" d="M67.4,23.9c-6,5.5-15.2,5.6-21.4,0.4l0.8-6.7c0.3-2.3,2.2-4.1,4.5-4.1l10.8,0c2.3,0,4.3,1.7,4.5,4.1
			L67.4,23.9z"/>
		<path fill="#2A2A35" d="M16.1,5.6h-2.6c-0.8,0-1.5-0.7-1.5-1.5V1.5c0-0.8-0.7-1.5-1.5-1.5H8.2C7.3,0,6.7,0.7,6.7,1.5v2.6
			C6.7,5,6,5.6,5.2,5.6H2.5C1.7,5.6,1,6.3,1,7.2v2.3c0,0.8,0.7,1.5,1.5,1.5h2.6c0.8,0,1.5,0.7,1.5,1.5v2.6c0,0.8,0.7,1.5,1.5,1.5
			h2.3c0.8,0,1.5-0.7,1.5-1.5v-2.6c0-0.8,0.7-1.5,1.5-1.5h2.6c0.8,0,1.5-0.7,1.5-1.5V7.2C17.6,6.3,16.9,5.6,16.1,5.6z"/>
		<path fill="#2A2A35" d="M8.4,27H7c-0.5,0-0.8-0.4-0.8-0.8v-1.5c0-0.5-0.4-0.8-0.8-0.8H4c-0.5,0-0.8,0.4-0.8,0.8v1.5
			c0,0.5-0.4,0.8-0.8,0.8H0.8C0.4,27,0,27.4,0,27.9v1.3C0,29.6,0.4,30,0.8,30h1.5c0.5,0,0.8,0.4,0.8,0.8v1.5c0,0.5,0.4,0.8,0.8,0.8
			h1.3c0.5,0,0.8-0.4,0.8-0.8v-1.5C6.1,30.4,6.5,30,7,30h1.5c0.5,0,0.8-0.4,0.8-0.8v-1.3C9.3,27.4,8.9,27,8.4,27z"/>
		<path fill="#2A2A35" d="M33.1,9.3h-1.7c-0.6,0-1-0.4-1-1V6.6c0-0.6-0.4-1-1-1h-1.5c-0.6,0-1,0.4-1,1v1.7c0,0.6-0.4,1-1,1h-1.7
			c-0.6,0-1,0.4-1,1v1.5c0,0.6,0.4,1,1,1h1.7c0.6,0,1,0.4,1,1v1.7c0,0.6,0.4,1,1,1h1.5c0.6,0,1-0.4,1-1v-1.7c0-0.6,0.4-1,1-1h1.7
			c0.6,0,1-0.4,1-1v-1.5C34.1,9.8,33.6,9.3,33.1,9.3z"/>
	</g>
</g>
<g id="_x32__страница" display="none">
</g>
<g id="Сетка" display="none">
</g>
</svg>
