<?xml version="1.0" encoding="utf-8"?>
<!-- Generator: Adobe Illustrator 17.1.0, SVG Export Plug-In . SVG Version: 6.00 Build 0)  -->
<!DOCTYPE svg PUBLIC "-//W3C//DTD SVG 1.1//EN" "http://www.w3.org/Graphics/SVG/1.1/DTD/svg11.dtd">
<svg version="1.1" xmlns="http://www.w3.org/2000/svg" xmlns:xlink="http://www.w3.org/1999/xlink" x="0px" y="0px"
	 viewBox="0 0 100 100" enable-background="new 0 0 100 100" xml:space="preserve">
<g id="Структура">
</g>
<g id="_x31__страница">
	<g>
		<path fill="#1F80D0" d="M11.1,61c0.9,3,2.1,6,3.7,8.7l-4.4,5.6c-1.4,1.8-1.3,4.4,0.3,6.1l7.6,7.6c1.6,1.6,4.3,1.8,6.1,0.3l5.6-4.4
			c2.9,1.6,5.9,2.9,9.1,3.8l0.8,7.1c0.3,2.3,2.2,4.1,4.5,4.1h10.8c2.3,0,4.3-1.7,4.5-4.1l0.8-6.9c3.4-0.9,6.7-2.2,9.7-3.9l5.4,4.3
			c1.8,1.4,4.4,1.3,6.1-0.3l7.6-7.6c1.6-1.6,1.8-4.3,0.3-6.1L85.5,70c1.7-3,3.1-6.2,4-9.6l6.4-0.7c2.3-0.3,4.1-2.2,4.1-4.5V44.3
			c0-2.3-1.7-4.3-4.1-4.5l-6.4-0.7c-0.9-3.3-2.2-6.5-3.8-9.4l3.9-4.9c1.4-1.8,1.3-4.4-0.3-6.1L81.7,11c-1.6-1.6-4.3-1.8-6.1-0.3
			l-4.8,3.8c-3.1-1.8-6.4-3.2-9.9-4.2l-0.7-6.2C59.9,1.7,57.9,0,55.6,0H44.8c-2.3,0-4.3,1.7-4.5,4.1l-0.7,6.2c-3.6,1-7,2.4-10.2,4.3
			l-5-3.9c-1.8-1.4-4.4-1.3-6.1,0.3l-7.6,7.6c-1.6,1.6-1.8,4.3-0.3,6.1l4.2,5.3c-1.7,3-2.9,6.2-3.8,9.5l-6.7,0.8
			C1.7,40.5,0,42.5,0,44.8v10.8c0,2.3,1.7,4.3,4.1,4.5L11.1,61z M50.2,31.7c9.8,0,17.9,8,17.9,17.9c0,9.8-8,17.9-17.9,17.9
			s-17.9-8-17.9-17.9C32.4,39.7,40.4,31.7,50.2,31.7L50.2,31.7z M50.2,31.7"/>
		<path fill="#2A2A35" d="M18.1,99.4C31.7,93.2,30.9,80.7,30.7,71c0-1-0.8-1.9-1.9-2c-4.8-0.3-8.8-1.8-12.2-4.6
			c-0.7-0.6-1.8-0.6-2.5,0c-3.4,2.8-7.4,4.3-12.2,4.6c-1,0.1-1.9,0.9-1.9,2c-0.2,9.7-1,22.2,12.6,28.4
			C14.4,100.2,16.4,100.2,18.1,99.4z M14.1,87.4"/>
	</g>
</g>
<g id="_x32__страница" display="none">
</g>
<g id="Сетка" display="none">
</g>
</svg>
