<?xml version="1.0" encoding="utf-8"?>
<!-- Generator: Adobe Illustrator 17.1.0, SVG Export Plug-In . SVG Version: 6.00 Build 0)  -->
<!DOCTYPE svg PUBLIC "-//W3C//DTD SVG 1.1//EN" "http://www.w3.org/Graphics/SVG/1.1/DTD/svg11.dtd">
<svg version="1.1" xmlns="http://www.w3.org/2000/svg" xmlns:xlink="http://www.w3.org/1999/xlink" x="0px" y="0px"
	 viewBox="0 0 103.4 111.4" enable-background="new 0 0 103.4 111.4" xml:space="preserve">
<g id="Структура">
</g>
<g id="_x31__страница">
	<g>
		<path fill="#2A2A35" d="M98.1,61.3l-23.5-0.2c-1.5,0-2.8-0.9-3.5-2.3c0,0,0,0,0,0c0.3,0.5,0.5,1.3,0.5,2.3c0,9.8-8,17.9-17.9,17.9
			s-17.9-8-17.9-17.9c0-1,0.2-1.7,0.5-2.2c0,0,0,0,0,0c-0.7,1.3-2,2.2-3.4,2.2l-24,0.5c-2.9,0.1-5.4-2.3-5.4-5.3v10.8
			c0,2.3,1.7,4.3,4.1,4.5l7,0.8c0.9,3,2.1,6,3.7,8.7l-4.4,5.6c-1.4,1.8-1.3,4.4,0.3,6.1l7.6,7.6c1.6,1.6,4.3,1.8,6.1,0.4l5.6-4.4
			c2.9,1.6,5.9,2.9,9.1,3.8l0.8,7.1c0.3,2.3,2.2,4.1,4.5,4.1h10.8c2.3,0,4.3-1.7,4.5-4.1l0.8-6.9c3.4-0.9,6.7-2.2,9.7-3.9l5.4,4.3
			c1.8,1.4,4.4,1.3,6.1-0.3l7.6-7.6c1.6-1.6,1.8-4.3,0.3-6.1l-4.2-5.3c1.7-3,3.1-6.2,4-9.6l6.4-0.7c2.3-0.3,4.1-2.2,4.1-4.5V56
			C103.4,59,101.1,61.3,98.1,61.3z"/>
		<path fill="#1F80D0" d="M98.1,61.3c2.9,0,5.3-2.3,5.3-5.3v-0.2c0-2.3-1.7-4.3-4.1-4.5l-1-0.1c-3.2-0.4-5.8-2.5-7-5.4
			c0,0,0-0.1,0-0.1c-1.2-2.9-0.8-6.3,1.2-8.8l0.6-0.7c1.4-1.8,1.3-4.4-0.3-6.1l-7.6-7.6c-1.6-1.6-4.3-1.8-6.1-0.4l-0.3,0.3
			c-2.6,2-6,2.5-9,1.2c0,0-0.1,0-0.1,0c-3.3-1.4-5.6-4.4-6-8l0-0.1c-0.3-2.3-2.2-4.1-4.5-4.1H48.3c-2.3,0-4.3,1.7-4.5,4.1l0,0.3
			c-0.4,3.4-2.6,6.3-5.7,7.6c0,0-0.1,0-0.1,0c-3.3,1.4-7.2,0.9-10-1.4l0,0c-1.8-1.4-4.4-1.3-6.1,0.3l-7.6,7.6
			c-1.6,1.6-1.8,4.2-0.4,6.1l0.9,1.1c1.9,2.4,2.3,5.7,1.2,8.6c0,0,0,0.1,0,0.1c-1.3,3.1-4.2,5.3-7.6,5.7l-0.7,0.1
			c-2.3,0.3-4.1,2.2-4.1,4.5v0.1c0,2.9,2.4,5.3,5.4,5.3l24-0.5c1.5,0,2.7-0.9,3.4-2.2c1.8-3.2,8.7,1.1,17.2,1.1l0,0
			c8.5,0,15.8-4.4,17.6-1.1c0.8,1.3,2,2.2,3.5,2.3L98.1,61.3z"/>
		<circle fill="#1F80D0" cx="32" cy="11.4" r="4"/>
		<circle fill="#1F80D0" cx="12.5" cy="2.3" r="2.3"/>
		<circle fill="#1F80D0" cx="5.5" cy="22.8" r="5.5"/>
	</g>
</g>
<g id="_x32__страница" display="none">
</g>
<g id="Сетка" display="none">
</g>
</svg>
