<?xml version="1.0" encoding="utf-8"?>
<!-- Generator: Adobe Illustrator 17.1.0, SVG Export Plug-In . SVG Version: 6.00 Build 0)  -->
<!DOCTYPE svg PUBLIC "-//W3C//DTD SVG 1.1//EN" "http://www.w3.org/Graphics/SVG/1.1/DTD/svg11.dtd">
<svg version="1.1" xmlns="http://www.w3.org/2000/svg" xmlns:xlink="http://www.w3.org/1999/xlink" x="0px" y="0px"
	 viewBox="0 0 20 20" enable-background="new 0 0 20 20" xml:space="preserve">
<g id="Структура">
</g>
<g id="_x31__страница">
	<path fill="#2A2A35" d="M2.2,12.2c0.2,0.6,0.4,1.2,0.7,1.7l-0.9,1.1c-0.3,0.4-0.3,0.9,0.1,1.2l1.5,1.5c0.3,0.3,0.9,0.4,1.2,0.1
		L6,17c0.6,0.3,1.2,0.6,1.8,0.8L8,19.2C8,19.6,8.4,20,8.9,20H11c0.5,0,0.9-0.3,0.9-0.8l0.2-1.4c0.7-0.2,1.3-0.4,1.9-0.8l1.1,0.9
		c0.4,0.3,0.9,0.3,1.2-0.1l1.5-1.5c0.3-0.3,0.4-0.9,0.1-1.2L17.1,14c0.3-0.6,0.6-1.2,0.8-1.9l1.3-0.1c0.5-0.1,0.8-0.4,0.8-0.9V8.9
		C20,8.4,19.7,8,19.2,8l-1.3-0.1c-0.2-0.7-0.4-1.3-0.8-1.9l0.8-1c0.3-0.4,0.3-0.9-0.1-1.2l-1.5-1.5c-0.3-0.3-0.9-0.4-1.2-0.1l-1,0.8
		c-0.6-0.4-1.3-0.6-2-0.8L12,0.8C12,0.3,11.6,0,11.1,0H9C8.5,0,8.1,0.3,8.1,0.8L7.9,2.1c-0.7,0.2-1.4,0.5-2,0.9l-1-0.8
		C4.5,1.8,4,1.9,3.7,2.2L2.1,3.7C1.8,4.1,1.8,4.6,2.1,4.9L2.9,6C2.6,6.6,2.3,7.2,2.1,7.9L0.8,8.1C0.3,8.1,0,8.5,0,9v2.2
		C0,11.6,0.3,12,0.8,12L2.2,12.2z M10,6.3c2,0,3.6,1.6,3.6,3.6c0,2-1.6,3.6-3.6,3.6s-3.6-1.6-3.6-3.6C6.5,7.9,8.1,6.3,10,6.3L10,6.3
		z M10,6.3"/>
</g>
<g id="_x32__страница" display="none">
</g>
<g id="Сетка" display="none">
</g>
</svg>
