<?xml version="1.0" encoding="utf-8"?>
<!-- Generator: Adobe Illustrator 17.1.0, SVG Export Plug-In . SVG Version: 6.00 Build 0)  -->
<!DOCTYPE svg PUBLIC "-//W3C//DTD SVG 1.1//EN" "http://www.w3.org/Graphics/SVG/1.1/DTD/svg11.dtd">
<svg version="1.1" xmlns="http://www.w3.org/2000/svg" xmlns:xlink="http://www.w3.org/1999/xlink" x="0px" y="0px"
	 viewBox="0 0 64 64" enable-background="new 0 0 64 64" xml:space="preserve">
<g id="Структура">
</g>
<g id="_x31__страница">
	<g>
		<path fill-rule="evenodd" clip-rule="evenodd" fill="#2A2A35" d="M0,15v34c0,8.3,6.7,15,15,15h34c8.3,0,15-6.7,15-15V15
			c0-8.3-6.7-15-15-15H15C6.7,0,0,6.7,0,15z M48,35.4c1.5,1.4,3,2.8,4.3,4.4c0.6,0.7,1.1,1.4,1.6,2.2c0.6,1.2,0.1,2.4-1,2.5l-6.5,0
			c-1.7,0.1-3-0.5-4.1-1.7c-0.9-0.9-1.7-1.9-2.6-2.8c-0.3-0.4-0.7-0.7-1.2-1c-0.9-0.6-1.6-0.4-2.1,0.5c-0.5,0.9-0.6,2-0.7,3
			c-0.1,1.5-0.5,1.9-2.1,2c-3.3,0.2-6.4-0.3-9.2-2c-2.5-1.4-4.5-3.5-6.2-5.8c-3.3-4.5-5.9-9.5-8.2-14.6c-0.5-1.1-0.1-1.8,1.1-1.8
			c2.1,0,4.2,0,6.3,0c0.9,0,1.4,0.5,1.8,1.3c1.1,2.8,2.5,5.5,4.3,7.9c0.5,0.7,0.9,1.3,1.6,1.8c0.7,0.5,1.3,0.3,1.7-0.5
			c0.2-0.5,0.3-1.1,0.4-1.7c0.2-1.9,0.2-3.9-0.1-5.8c-0.2-1.2-0.9-2-2.1-2.2c-0.6-0.1-0.5-0.3-0.2-0.7c0.5-0.6,1-1,2-1h7.3
			c1.1,0.2,1.4,0.7,1.6,1.9l0,8.1c0,0.4,0.2,1.8,1,2.1c0.6,0.2,1.1-0.3,1.5-0.7c1.7-1.9,3-4,4.1-6.3c0.5-1,0.9-2,1.3-3.1
			c0.3-0.8,0.8-1.1,1.6-1.1l7,0c0.2,0,0.4,0,0.6,0c1.2,0.2,1.5,0.7,1.1,1.9c-0.6,1.8-1.7,3.3-2.8,4.8c-1.2,1.6-2.4,3.2-3.6,4.8
			C46.6,33.4,46.7,34.1,48,35.4L48,35.4z M48,35.4"/>
	</g>
</g>
<g id="_x32__страница" display="none">
</g>
<g id="Сетка" display="none">
</g>
</svg>
