<?xml version="1.0" encoding="utf-8"?>
<!-- Generator: Adobe Illustrator 17.1.0, SVG Export Plug-In . SVG Version: 6.00 Build 0)  -->
<!DOCTYPE svg PUBLIC "-//W3C//DTD SVG 1.1//EN" "http://www.w3.org/Graphics/SVG/1.1/DTD/svg11.dtd">
<svg version="1.1" xmlns="http://www.w3.org/2000/svg" xmlns:xlink="http://www.w3.org/1999/xlink" x="0px" y="0px"
	 viewBox="0 0 64 64" enable-background="new 0 0 64 64" xml:space="preserve">
<g id="Структура">
</g>
<g id="_x31__страница">
	<g>
		<g>
			<path fill="#2A2A35" d="M27.5,38.7h2.8v12.8l-2.2,0v-1.6c-0.6,1.3-3,2.3-4.3,1.4c-0.7-0.5-0.7-1.3-0.7-2.1c0-0.4,0-1.3,0-2.5
				v-7.9h2.8l0,8.1c0,1.1-0.1,1.7,0,2c0.4,1.2,1.4,0.6,1.6-0.1c0.1-0.2,0-0.8,0-1.9V38.7z M39.3,41.2l0,6.7c0,3.2-1.8,5.1-4.8,2.4
				l-0.2,1.1l-2.3,0l0-17.1h2.8l0,5C37.4,37.1,39.3,38.7,39.3,41.2L39.3,41.2z M37.2,40.9c0-0.6-0.5-1-1.2-1c-0.7,0-1.2,0.5-1.2,1
				v7.5c0,0.5,0.5,1,1.2,1c0.7,0,1.2-0.5,1.2-1V40.9z M31.5,24.6c0.7,0,1.2-0.6,1.2-1.4v-7.1c0-0.8-0.6-1.4-1.2-1.4
				c-0.7,0-1.2,0.6-1.2,1.4v7.1C30.3,24,30.8,24.6,31.5,24.6L31.5,24.6z M23.6,36.5v-2.2l-8.9,0v2.2l2.8,0v15h2.8v-15H23.6z M64,15
				v34c0,8.3-6.7,15-15,15H15C6.7,64,0,57.3,0,49V15C0,6.7,6.7,0,15,0h34C57.3,0,64,6.7,64,15z M36.9,22c0,1.1,0,1.9,0,2.3
				c0,0.4,0.1,0.7,0.3,1.1c0.1,0.4,0.4,0.6,0.7,0.8c0.3,0.2,0.7,0.3,1.1,0.3c0.4,0,0.8-0.1,1.1-0.3c0.3-0.2,0.6-0.6,0.8-1l-0.1,1.1
				H44V13.1h-2.4v10.3c0,0.6-0.5,1-1,1c-0.6,0-1-0.5-1-1V13.1h-2.6V22z M28.1,14.9c-0.2,0.7-0.3,1.7-0.3,3v3.5c0,1.2,0.1,2,0.2,2.6
				c0.1,0.6,0.3,1.1,0.6,1.5c0.3,0.4,0.7,0.7,1.2,0.9c0.5,0.2,1.1,0.3,1.8,0.3c0.6,0,1.2-0.1,1.7-0.4c0.5-0.2,0.9-0.6,1.2-1.1
				c0.3-0.5,0.5-1,0.6-1.6c0.1-0.6,0.1-1.5,0.1-2.7v-3.3c0-1,0-1.7-0.2-2.2c-0.1-0.5-0.3-0.9-0.6-1.4c-0.3-0.4-0.7-0.8-1.2-1.1
				c-0.5-0.3-1.1-0.4-1.9-0.4c-0.8,0-1.6,0.2-2.1,0.7C28.7,13.7,28.4,14.2,28.1,14.9L28.1,14.9z M17.9,7.9l3.7,8.7v10.2h2.9V16.6
				l3.5-8.7h-3.2L23,14.4l-1.9-6.5H17.9z M52.1,35.7c0-3.4-3-6.2-6.6-6.2h-27c-3.6,0-6.6,2.8-6.6,6.2v14.2c0,3.4,3,6.2,6.6,6.2h27
				c3.6,0,6.6-2.8,6.6-6.2V35.7z M48,47c1,5.7-7.1,6.6-7.1,0v-4c0-1.2,0.1-2.1,0.4-2.8c0.2-0.7,0.6-1.2,1.2-1.6
				c1.7-1.2,5-0.8,5.4,1.5c0.1,0.8,0.1,2.1,0.1,3.4v1.8h-4.8v3.1c0,0.6,0.5,1.1,1.1,1.1h0.4c0.6,0,1.1-0.5,1.1-1.1v-1.2
				c0-0.1,0-0.2,0-0.3L48,47z M43.3,43.2h2.6l0-1.5c0-0.7-0.6-1.2-1.2-1.2h-0.2c-0.7,0-1.2,0.6-1.2,1.2L43.3,43.2z M43.3,43.2"/>
		</g>
	</g>
</g>
<g id="_x32__страница" display="none">
</g>
<g id="Сетка" display="none">
</g>
</svg>
