<?xml version="1.0" encoding="utf-8"?>
<!-- Generator: Adobe Illustrator 17.1.0, SVG Export Plug-In . SVG Version: 6.00 Build 0)  -->
<!DOCTYPE svg PUBLIC "-//W3C//DTD SVG 1.1//EN" "http://www.w3.org/Graphics/SVG/1.1/DTD/svg11.dtd">
<svg version="1.1" xmlns="http://www.w3.org/2000/svg" xmlns:xlink="http://www.w3.org/1999/xlink" x="0px" y="0px"
	 viewBox="0 0 144 64" enable-background="new 0 0 144 64" xml:space="preserve">
<g id="Структура">
</g>
<g id="_x31__страница">
	<g>
		<path fill-rule="evenodd" clip-rule="evenodd" fill="#2A2A35" d="M15,64h114c8.3,0,15-6.7,15-15V15c0-8.3-6.7-15-15-15H15
			C6.7,0,0,6.7,0,15v34C0,57.3,6.7,64,15,64z"/>
		<path fill="#FFFFFF" d="M24.4,29.7v-9.9c0-5.9-2.8-7.4-6.8-7.4h-6.5v24.8h6.5C21.8,37.1,24.4,35.3,24.4,29.7L24.4,29.7z
			 M19.8,29.4c0,2.4-0.9,3.5-2.5,3.5h-1.6V16.6h1.7c1.5,0,2.4,0.8,2.4,3.5V29.4L19.8,29.4z M41,37.1l-3.7-10.8
			c2-0.9,3.3-2.6,3.3-6.3v-0.6c0-4.4-1.8-7-6.3-7h-7v24.8h4.5v-9.9h1.3l3.1,9.9H41L41,37.1z M35.9,20.1c0,2.1-0.8,3.2-2.3,3.2h-1.8
			v-6.8h1.8c1.7,0,2.3,1,2.3,3.2V20.1L35.9,20.1z M47.8,37.1V12.4h-4.6v24.8H47.8L47.8,37.1z M65,12.4h-4.6l-2.6,13.4l-0.4,3l-0.4-3
			l-2.7-13.4h-4.7l5.8,24.8h3.9L65,12.4L65,12.4z M78.2,37.1v-4.2h-6.9v-6.2h5.8v-4.2h-5.8v-6h6.9v-4.2H66.7v24.8H78.2L78.2,37.1z
			 M92.8,18.7c0-4.6-2.3-6.6-6.1-6.6c-3.7,0-6.3,2.2-6.3,7.2h4.3c0-2.6,0.8-3.3,1.9-3.3c1.2,0,1.8,0.7,1.8,2.6c0,1.6-0.5,2.7-1.3,4
			l-6.6,10.5v4h12.1v-4h-7.1l5-7.9C91.9,22.9,92.8,21.2,92.8,18.7L92.8,18.7z M117.3,37.1l-3.7-10.8c2-0.9,3.3-2.6,3.3-6.3v-0.6
			c0-4.4-1.8-7-6.2-7h-7v24.8h4.5v-9.9h1.3l3.1,9.9H117.3L117.3,37.1z M112.2,20.1c0,2.1-0.8,3.2-2.3,3.2h-1.8v-6.8h1.8
			c1.7,0,2.3,1,2.3,3.2V20.1L112.2,20.1z M132.8,29.9V12.4h-4.6v17.4c0,2.5-0.5,3.4-2.2,3.4c-1.7,0-2.2-1-2.2-3.4V12.4h-4.6v17.5
			c0,5.4,2.6,7.5,6.8,7.5C130.2,37.4,132.8,35.2,132.8,29.9L132.8,29.9z M96.2,33.1h4v4h-4V33.1L96.2,33.1z M15.3,48h-1.4
			c0,0.9-0.2,1.1-0.6,1.1c-0.4,0-0.6-0.2-0.6-1.1v-3c0-0.9,0.3-1.1,0.6-1.1c0.5,0,0.6,0.3,0.6,1.1h1.4c0-1.9-0.9-2.4-2-2.4
			c-1.1,0-2.1,0.6-2.1,2.3V48c0,1.8,0.9,2.4,2.1,2.4C14.5,50.4,15.2,49.7,15.3,48L15.3,48z M20,48v-3.1c0-1.8-0.9-2.3-2-2.3
			c-1.2,0-2.1,0.6-2.1,2.3V48c0,1.8,0.9,2.4,2.1,2.4C19.1,50.4,20,49.8,20,48L20,48z M18.6,48c0,0.9-0.3,1.1-0.7,1.1
			c-0.4,0-0.7-0.2-0.7-1.1v-3c0-0.9,0.3-1.1,0.7-1.1c0.4,0,0.7,0.2,0.7,1.1V48L18.6,48z M24.9,48v-3.1c0-1.8-0.9-2.3-2.1-2.3
			c-1.1,0-2,0.6-2,2.3V48c0,1.8,0.9,2.4,2,2.4C24,50.4,24.9,49.8,24.9,48L24.9,48z M23.5,48c0,0.9-0.3,1.1-0.7,1.1
			c-0.4,0-0.6-0.2-0.6-1.1v-3c0-0.9,0.3-1.1,0.6-1.1c0.4,0,0.7,0.2,0.7,1.1V48L23.5,48z M30,48.1v-0.2c0-1.6-0.8-2.2-2.1-2.2h-0.7
			V44h2.4v-1.3h-3.8v7.7h2.1C29.2,50.3,30,49.7,30,48.1L30,48.1z M28.6,48c0,0.7-0.2,1-0.8,1h-0.6v-2.2h0.6
			C28.3,46.9,28.6,47.2,28.6,48L28.6,48L28.6,48z M37.9,51.9V49h-0.6v-6.3h-1.4V49h-1.1v-6.3h-1.4V49h-1.1v-6.3h-1.4v7.7h5.8v1.5
			H37.9L37.9,51.9z M42,50.3V49h-2.1v-1.9h1.8v-1.3h-1.8V44H42v-1.3h-3.5v7.7H42L42,50.3z M46.7,48h-1.4c0,0.9-0.2,1.1-0.6,1.1
			c-0.3,0-0.6-0.2-0.6-1.1v-3c0-0.9,0.3-1.1,0.7-1.1c0.5,0,0.6,0.3,0.6,1.1h1.4c0-1.9-0.9-2.4-2-2.4s-2.1,0.6-2.1,2.3V48
			c0,1.8,0.9,2.4,2.1,2.4C45.9,50.4,46.6,49.7,46.7,48L46.7,48z M51.1,44v-1.3H47V44h1.3v6.4h1.4V44H51.1L51.1,44z M56,48.2V48
			c0-1-0.5-1.5-0.9-1.6c0.4-0.2,0.8-0.6,0.8-1.5v-0.1c0-1.4-0.6-2.1-2-2.1h-2.1v7.7h2.1C55.1,50.3,56,49.7,56,48.2L56,48.2z
			 M54.4,44.9c0,0.6-0.1,0.9-0.7,0.9h-0.6v-1.9h0.5C54.2,43.9,54.4,44.3,54.4,44.9L54.4,44.9z M54.5,48c0,0.6-0.2,1-0.8,1h-0.6v-2
			h0.6C54.4,47.1,54.5,47.4,54.5,48L54.5,48z M60.7,48v-3.1c0-1.8-0.9-2.3-2.1-2.3c-1.1,0-2.1,0.6-2.1,2.3V48c0,1.8,0.9,2.4,2.1,2.4
			C59.8,50.4,60.7,49.8,60.7,48L60.7,48z M59.3,48c0,0.9-0.3,1.1-0.7,1.1c-0.4,0-0.7-0.2-0.7-1.1v-3c0-0.9,0.3-1.1,0.7-1.1
			c0.4,0,0.7,0.2,0.7,1.1V48L59.3,48z M70.3,50.3v-7.7H69l-1.3,4.2l-1.3-4.2h-1.3v7.7h1.3v-3.7l0-0.8l0.1,0.7l0.7,2.3h0.9l0.7-2.3
			l0.2-0.7l0,0.8v3.7H70.3L70.3,50.3z M75.6,50.3l-1.8-7.7h-1.2l-1.8,7.7h1.4l0.2-1.2H74l0.2,1.2H75.6L75.6,50.3z M73.7,47.9h-1.1
			c0,0,0.4-1.9,0.4-1.9l0.1-0.8l0.1,0.8L73.7,47.9L73.7,47.9z M82.7,50.3v-7.7h-1.4V49h-1.2v-6.3h-1.4V49h-1.2v-6.3h-1.4v7.7H82.7
			L82.7,50.3z M88,50.3v-7.7h-1.2l-1.6,4.6h0c0-0.2,0-0.9,0-1.1v-3.4h-1.4v7.7H85l1.6-4.6l0,0c0,0.2-0.1,0.8-0.1,1v3.5H88L88,50.3z
			 M93.1,50.3v-7.7h-1.4v3.1h-1.3v-3.1H89v7.7h1.4v-3.2h1.3v3.2H93.1L93.1,50.3z M101.8,50.3v-7.7h-1.2L99,47.2h0c0-0.2,0-0.9,0-1.1
			v-3.4h-1.4v7.7h1.2l1.6-4.6h0c0,0.2-0.1,0.8-0.1,1v3.5H101.8L101.8,50.3z M110.7,50.3v-7.7h-3.8l-0.1,4.8c0,0.7-0.1,1.6-1,1.6v1.3
			h0.4c1.5,0,2-1.1,2-2.8l0.1-3.5h1v6.4H110.7L110.7,50.3z M118,48v-3.1c0-1.8-0.9-2.3-2.1-2.3c-1.2,0-2.1,0.6-2.1,2.3v0.9h-0.7
			v-3.1h-1.4v7.7h1.4v-3.2h0.7V48c0,1.8,0.9,2.4,2.1,2.4C117.1,50.4,118,49.8,118,48L118,48z M116.6,48c0,0.9-0.3,1.1-0.7,1.1
			s-0.6-0.2-0.6-1.1v-3c0-0.9,0.3-1.1,0.6-1.1s0.7,0.2,0.7,1.1V48L116.6,48z M123.8,51.9V49h-0.6v-6.4h-3.7v1c0,2.7-0.1,4-0.6,5.4
			h-0.4v2.8h1.3v-1.5h2.8v1.5H123.8L123.8,51.9z M121.8,49h-1.5c0.4-1.2,0.6-2,0.6-4.2V44h1V49L121.8,49z M127.9,50.3V49h-2.1v-1.9
			h1.8v-1.3h-1.8V44h2.1v-1.3h-3.6v7.7H127.9L127.9,50.3z M132.3,40.8h-0.9c0,0.3-0.2,0.6-0.6,0.6c-0.4,0-0.6-0.3-0.6-0.6h-0.9
			c0.1,1,0.7,1.4,1.5,1.4S132.2,41.7,132.3,40.8L132.3,40.8z M132.8,50.3v-7.7h-1.2l-1.6,4.6l0,0c0-0.2,0-0.9,0-1.1v-3.4h-1.4v7.7
			h1.2l1.6-4.6h0c0,0.2-0.1,0.8-0.1,1v3.5H132.8z"/>
	</g>
</g>
<g id="_x32__страница" display="none">
</g>
<g id="Сетка" display="none">
</g>
</svg>
