<?xml version="1.0" encoding="utf-8"?>
<!-- Generator: Adobe Illustrator 17.1.0, SVG Export Plug-In . SVG Version: 6.00 Build 0)  -->
<!DOCTYPE svg PUBLIC "-//W3C//DTD SVG 1.1//EN" "http://www.w3.org/Graphics/SVG/1.1/DTD/svg11.dtd">
<svg version="1.1" xmlns="http://www.w3.org/2000/svg" xmlns:xlink="http://www.w3.org/1999/xlink" x="0px" y="0px"
	 viewBox="0 0 1440 960" enable-background="new 0 0 1440 960" xml:space="preserve">
<g id="Структура">
</g>
<g id="_x31__страница">
	<g>
		<defs>
			<rect id="SVGID_99_" x="0" y="0.4" width="1440" height="960"/>
		</defs>
		<clipPath id="SVGID_2_">
			<use xlink:href="#SVGID_99_"  overflow="visible"/>
		</clipPath>
		<g opacity="0.5" clip-path="url(#SVGID_2_)">
			<g>
				<g>
					
						<path fill="none" stroke="#1F80D0" stroke-width="2.5" stroke-linecap="round" stroke-linejoin="round" stroke-miterlimit="10" d="
						M-64.9,1000.1c0.4,0.2,3.9-0.8,8.7-2.4c2.7,3.5,6,6.4,9.7,8.5c-1.2,4.8-2.1,8.4-2.1,8.9c0,1.4,6.1,4.1,9.2,3.3
						c0.4-0.1,2.3-3.5,4.6-8.2c4.1,0.6,8.4,0.3,12.5-0.8c2.7,4.4,4.7,7.7,5,8c1,1,7.2-1.5,8.8-4.2c0.2-0.4-0.9-4.2-2.6-9.2
						c3.6-2.7,6.4-6.1,8.5-9.9c5.4,1.1,9.5,1.9,10,1.8c1.6-0.4,3.3-9.2,3.3-9.2s-4-1.8-9.4-4.3c0.5-4.1,0.3-8.3-0.9-12.4
						c4.6-3,8-5.3,8.3-5.8c0.8-1.4-4.2-8.8-4.2-8.8s-4,1.5-9.5,3.5c-2.6-3.5-5.9-6.3-9.5-8.4c1.1-5.2,1.8-9.2,1.7-9.6
						c-0.4-1.6-9.2-3.3-9.2-3.3s-1.7,3.8-4.1,8.9c-4.2-0.6-8.6-0.3-12.9,0.8c-2.9-4.3-5-7.5-5.4-7.8c-1.4-0.8-8.8,4.2-8.8,4.2
						s1.4,3.8,3.3,8.9c-3.4,2.6-6.2,5.8-8.3,9.3c-4.7-1.2-8.1-2-8.5-2c-1.4,0-4.1,6.1-3.3,9.2c0.1,0.4,3.3,2.1,7.7,4.3
						c-0.6,4.3-0.4,8.7,0.8,13c-4.2,2.5-7.2,4.4-7.5,4.7C-70.1,992.3-67.6,998.5-64.9,1000.1z M-37.8,962.9c8.5-4,18.6-0.4,22.7,8
						c4,8.5,0.4,18.6-8,22.7c-8.5,4-18.6,0.4-22.7-8C-49.9,977.1-46.3,966.9-37.8,962.9z"/>
				</g>
				<g>
					
						<path fill="none" stroke="#1F80D0" stroke-width="2.5" stroke-linecap="round" stroke-linejoin="round" stroke-miterlimit="10" d="
						M328.2,906.5c0,0.5,3,3,7.3,6.4c-1.6,4.5-2.2,9.1-2,13.7c-5.1,1.8-8.8,3.1-9.2,3.3c-1.3,0.8-0.1,7.9,2.4,10.2
						c0.3,0.3,4.5,0,10.1-0.7c1.9,4,4.6,7.7,8,10.8c-2.4,5-4.2,8.7-4.3,9.2c-0.3,1.5,5.5,5.6,9,5.5c0.5,0,3.2-3.3,6.8-7.8
						c4.5,1.6,9.2,2.2,13.9,1.9c2.1,5.5,3.8,9.7,4.2,10c1.3,1.2,10.2-2.4,10.2-2.4s-0.7-4.7-1.6-11c4-1.9,7.6-4.6,10.7-8
						c5.4,2.4,9.5,4.1,10,4.1c1.7-0.1,5.5-9,5.5-9s-3.7-2.8-8.7-6.5c1.6-4.4,2.2-9,2-13.5c5.4-2.1,9.3-3.7,9.7-4.1
						c1.2-1.3-2.4-10.2-2.4-10.2s-4.4,0.6-10.4,1.5c-1.9-4.2-4.7-8-8.3-11.2c2.3-5.1,3.8-8.9,3.8-9.5c-0.1-1.7-9-5.5-9-5.5
						s-2.6,3.4-6.1,8.2c-4.3-1.6-8.8-2.2-13.2-2c-1.7-4.9-3-8.5-3.2-8.9c-0.8-1.3-7.9-0.1-10.2,2.4c-0.3,0.3,0,4.2,0.6,9.5
						c-4.2,1.9-8.1,4.7-11.3,8.3c-4.7-2.3-8.2-3.9-8.6-4C332.3,897.2,328.1,903.1,328.2,906.5z M382.2,901.6
						c12.8,7.8,16.8,24.6,8.9,37.3c-7.8,12.8-24.6,16.8-37.3,8.9c-12.8-7.8-16.8-24.6-8.9-37.3C352.7,897.7,369.5,893.7,382.2,901.6
						z"/>
					
						<circle fill="none" stroke="#1F80D0" stroke-width="2.5" stroke-linecap="round" stroke-linejoin="round" stroke-miterlimit="10" cx="368" cy="924.7" r="19.2"/>
				</g>
				<g>
					
						<path fill="none" stroke="#1F80D0" stroke-width="2.5" stroke-linecap="round" stroke-linejoin="round" stroke-miterlimit="10" d="
						M484.1,1011.5c0.3,0.5,5.1,1.9,11.8,3.6c0.5,6,2.1,11.7,4.8,16.8c-4.9,4.7-8.6,8.2-8.9,8.7c-1.1,1.6,4,9.2,8.2,10.6
						c0.6,0.2,5.2-2.4,11.3-6c4.3,3.7,9.3,6.5,14.9,8.3c-0.2,7-0.3,12.2-0.2,12.8c0.4,1.9,9.3,3.6,13.2,1.7c0.5-0.3,2-5.5,3.8-12.5
						c6.1-0.5,11.9-2.2,17.1-5c5.4,5.3,9.5,9.2,10.1,9.4c2.1,0.7,10.6-8.2,10.6-8.2s-3.2-5-7.6-11.8c3.6-4.3,6.4-9.3,8.1-14.8
						c7.5-0.1,13.1-0.2,13.7-0.5c2-1,1.7-13.2,1.7-13.2s-5.7-1.3-13.5-2.9c-0.5-5.9-2.1-11.5-4.7-16.6c5.1-5.2,8.8-9.1,9.1-9.8
						c0.7-2.1-8.2-10.6-8.2-10.6s-4.7,3-11.3,7.2c-4.4-3.8-9.6-6.7-15.4-8.6c-0.1-7.1-0.2-12.3-0.5-12.9c-1-2-13.2-1.7-13.2-1.7
						s-1.2,5.3-2.8,12.7c-5.8,0.4-11.3,2-16.3,4.6c-4.5-4.8-7.8-8.2-8.3-8.6c-1.6-1.1-9.2,4-10.6,8.2c-0.2,0.6,2.2,4.9,5.7,10.7
						c-3.9,4.4-6.9,9.7-8.7,15.5c-6.6-0.2-11.5-0.3-12.1-0.2C483.9,998.6,482.2,1007.5,484.1,1011.5z M543.9,977.6
						c18.8,2.4,32.2,19.6,29.8,38.5c-2.4,18.8-19.6,32.2-38.5,29.8c-18.8-2.4-32.2-19.6-29.8-38.5
						C507.9,988.5,525.1,975.2,543.9,977.6z"/>
				</g>
				<g>
					
						<path fill="none" stroke="#1F80D0" stroke-width="2.5" stroke-linecap="round" stroke-linejoin="round" stroke-miterlimit="10" d="
						M979.5,1012.1c0.4,0.6,6.2,1.2,14.2,1.8c1.7,6.8,4.8,13,8.9,18.3c-4.7,6.3-8.2,11-8.5,11.7c-0.9,2,6.4,9.7,11.4,10.5
						c0.7,0.1,5.4-3.7,11.7-9.1c5.7,3.3,12,5.6,18.7,6.5c1.2,8.1,2.1,14.1,2.3,14.7c0.8,2.1,11.4,2.3,15.5-0.7
						c0.6-0.4,1.2-6.7,1.9-15.1c6.9-1.7,13.1-4.9,18.5-9.1c7.2,5,12.7,8.6,13.5,8.7c2.5,0.4,10.5-11.4,10.5-11.4s-4.7-5.1-11-12
						c3.3-5.6,5.5-11.9,6.4-18.6c8.6-1.6,14.9-2.8,15.6-3.3c2.1-1.5-0.7-15.5-0.7-15.5s-6.8-0.3-16-0.7c-1.7-6.7-4.7-12.8-8.7-18.1
						c4.8-7,8.3-12.2,8.4-13c0.4-2.5-11.4-10.5-11.4-10.5s-4.8,4.4-11.5,10.5c-5.8-3.5-12.4-5.8-19.4-6.7
						c-1.5-8.1-2.7-14.1-3.2-14.7c-1.5-2.1-15.5,0.7-15.5,0.7s-0.3,6.3-0.7,15.1c-6.5,1.7-12.6,4.6-17.8,8.5
						c-6.1-4.6-10.6-7.9-11.2-8.2c-2-0.9-9.7,6.4-10.5,11.4c-0.1,0.7,3.5,5.1,8.6,11.1c-3.6,5.8-5.9,12.4-6.9,19.5
						c-7.6,1.1-13.2,2-13.8,2.2C976.7,997.4,976.5,1008,979.5,1012.1z M1041.2,961.5c22.1-1,40.7,16.1,41.7,38.2
						c1,22.1-16.1,40.7-38.2,41.7c-22.1,1-40.7-16.1-41.7-38.2C1002.1,981.1,1019.2,962.5,1041.2,961.5z"/>
				</g>
				<g>
					
						<path fill="none" stroke="#1F80D0" stroke-width="2.5" stroke-linecap="round" stroke-linejoin="round" stroke-miterlimit="10" d="
						M15.2,980.6c0.4,0.4,5-0.2,11.3-1.2c2.6,4.9,6.1,9.1,10.3,12.5c-2.5,5.8-4.3,10.1-4.4,10.6c-0.3,1.7,6.8,6.3,10.8,6
						c0.6,0,3.5-3.9,7.4-9.2c5,1.5,10.3,2.1,15.7,1.6c2.4,6,4.2,10.5,4.5,11c1,1.5,9.3-0.3,11.9-3.4c0.4-0.4-0.3-5.4-1.4-12
						c5-2.6,9.3-6.2,12.7-10.5c6.5,2.5,11.4,4.3,12,4.3c2-0.2,6-10.8,6-10.8s-4.6-3.1-10.8-7.3c1.5-5,2-10.3,1.5-15.6
						c6.3-2.8,11-5,11.5-5.5c1.3-1.5-3.4-11.9-3.4-11.9s-5.3,1-12.5,2.4c-2.6-4.8-6-9-10.1-12.4c2.4-6.3,4.2-11,4.1-11.6
						c-0.2-2-10.8-6-10.8-6s-2.9,4.3-6.9,10.3c-5.2-1.6-10.7-2.2-16.3-1.6c-2.6-6-4.7-10.4-5.2-10.8c-1.5-1.3-11.9,3.4-11.9,3.4
						s0.9,5,2.3,11.8c-4.8,2.5-8.9,5.9-12.2,9.9c-5.6-2.4-9.7-4.1-10.2-4.2c-1.7-0.3-6.3,6.8-6,10.8c0,0.5,3.6,3.3,8.7,7
						c-1.7,5.2-2.3,10.7-1.7,16.4c-5.7,2.3-9.9,4-10.3,4.3C10.3,969.7,12.1,978,15.2,980.6z M53.6,929.9
						c16.9-4.9,34.5,4.9,39.4,21.8c4.9,16.9-4.9,34.5-21.8,39.4c-16.9,4.9-34.5-4.9-39.4-21.8C26.9,952.4,36.7,934.8,53.6,929.9z"/>
					
						<circle fill="none" stroke="#1F80D0" stroke-width="2.5" stroke-linecap="round" stroke-linejoin="round" stroke-miterlimit="10" cx="62.4" cy="960.5" r="22.6"/>
				</g>
				<g>
					
						<path fill="none" stroke="#1F80D0" stroke-width="2.5" stroke-linecap="round" stroke-linejoin="round" stroke-miterlimit="10" d="
						M122.7,956.1c0.4,0.7,4.4,1.1,10.6,1.3c0.4,2.4,0.9,4.7,1.6,7c-5,2.3-8.1,3.7-8.4,3.8c-1.9,0.9,1.8,10.8,4.2,12.8
						c0.7,0.5,4.5-0.6,10.3-2.9c1.2,2,2.5,3.8,4,5.6c-3.8,4-6.1,6.5-6.3,6.7c-1.5,1.5,5.7,9.3,8.7,10.3c0.8,0.2,3.9-2.3,8.4-6.6
						c1.9,1.4,4,2.7,6.1,3.9c-1.9,5.1-3.1,8.3-3.2,8.6c-0.8,2,8.9,6.4,12,6.1c0.8-0.1,2.7-3.6,5.2-9.3c2.2,0.5,4.5,0.9,6.8,1.2
						c0.2,5.5,0.3,8.9,0.3,9.2c0.1,2.1,10.6,2.5,13.4,1.1c0.7-0.4,1.1-4.4,1.3-10.6c2.9-0.5,5.7-1.1,8.5-2c2,4.2,3.3,6.8,3.5,7.3
						c1.4,3.2,13.3-1.3,12.5-4.8c-0.1-0.5-1.4-3.6-3.5-8.4c2.3-1.4,4.5-3,6.5-4.7c3.5,3.1,5.7,5.1,6,5.4c2.6,2.4,11.8-6.3,9.7-9.2
						c-0.3-0.4-2.7-2.8-6.4-6.4c1.6-2.3,3.1-4.6,4.4-7.1c4.4,1.5,7.2,2.5,7.6,2.7c3.3,1.3,8.5-10.4,5.4-12.3
						c-0.5-0.3-3.5-1.5-8.4-3.4c0.6-2.6,1.1-5.2,1.3-7.9c4.7-0.3,7.6-0.4,8.1-0.4c3.5-0.1,3.9-12.8,0.4-13.4c-0.5-0.1-3.8-0.1-9.1,0
						c-0.5-2.8-1.1-5.5-1.9-8.1c4.2-2,6.8-3.3,7.3-3.5c3.2-1.4-1.3-13.3-4.8-12.5c-0.5,0.1-3.6,1.4-8.4,3.5c-1.4-2.3-3-4.5-4.7-6.5
						c3.1-3.5,5.1-5.7,5.4-6c2.4-2.6-6.3-11.8-9.2-9.7c-0.4,0.3-2.8,2.7-6.4,6.4c-2.3-1.6-4.6-3.1-7.1-4.4c1.5-4.4,2.5-7.2,2.7-7.6
						c1.3-3.3-10.4-8.5-12.3-5.4c-0.3,0.5-1.5,3.5-3.4,8.4c-2.6-0.6-5.2-1.1-7.9-1.3c-0.3-4.7-0.4-7.6-0.4-8.1
						c-0.1-3.5-12.8-3.9-13.4-0.4c-0.1,0.5-0.1,3.8,0,9.1c-2.3,0.4-4.5,0.9-6.7,1.5c-2.3-5-3.7-8.1-3.8-8.4
						c-0.9-1.9-10.8,1.8-12.8,4.2c-0.5,0.7,0.6,4.5,2.9,10.3c-2,1.2-3.8,2.5-5.6,4c-4-3.8-6.5-6.1-6.7-6.3
						c-1.5-1.5-9.3,5.7-10.3,8.7c-0.2,0.8,2.3,3.9,6.6,8.4c-1.4,1.9-2.7,4-3.9,6.1c-5.1-1.9-8.3-3.1-8.6-3.2c-2-0.8-6.4,8.9-6.1,12
						c0.1,0.8,3.6,2.7,9.3,5.2c-0.5,2.2-0.9,4.5-1.2,6.8c-5.5,0.2-8.9,0.3-9.2,0.3C121.6,942.7,121.2,953.3,122.7,956.1z
						 M188.2,921.8c14.7-0.4,27,11.3,27.4,26c0.4,14.7-11.3,27-26,27.4c-14.7,0.4-27-11.3-27.4-26
						C161.8,934.5,173.5,922.2,188.2,921.8z"/>
				</g>
				<g>
					
						<path fill="none" stroke="#1F80D0" stroke-width="2.5" stroke-linecap="round" stroke-linejoin="round" stroke-miterlimit="10" d="
						M593.9,967c0.3,0.5,2.9,0.8,7,0.9c0.3,1.6,0.6,3.1,1.1,4.7c-3.3,1.5-5.3,2.4-5.5,2.5c-1.3,0.6,1.2,7.1,2.8,8.5
						c0.4,0.4,2.9-0.4,6.8-1.9c0.8,1.3,1.7,2.5,2.6,3.7c-2.5,2.6-4,4.3-4.2,4.4c-1,1,3.8,6.2,5.8,6.8c0.5,0.2,2.6-1.5,5.6-4.4
						c1.3,0.9,2.6,1.8,4,2.6c-1.3,3.4-2.1,5.5-2.1,5.7c-0.5,1.3,5.9,4.2,7.9,4c0.6-0.1,1.8-2.4,3.5-6.2c1.5,0.3,3,0.6,4.5,0.8
						c0.1,3.6,0.2,5.9,0.2,6.1c0,1.4,7,1.7,8.9,0.7c0.5-0.3,0.8-2.9,0.9-7c1.9-0.3,3.8-0.7,5.6-1.3c1.3,2.8,2.2,4.5,2.3,4.8
						c1,2.1,8.8-0.9,8.3-3.2c-0.1-0.4-0.9-2.4-2.3-5.5c1.5-0.9,2.9-2,4.3-3.1c2.3,2.1,3.8,3.4,4,3.6c1.7,1.6,7.8-4.2,6.4-6.1
						c-0.2-0.3-1.8-1.8-4.2-4.2c1.1-1.5,2.1-3.1,2.9-4.7c2.9,1,4.7,1.6,5,1.8c2.2,0.8,5.6-6.8,3.6-8.1c-0.3-0.2-2.3-1-5.5-2.3
						c0.4-1.7,0.7-3.5,0.8-5.2c3.1-0.2,5-0.3,5.3-0.3c2.3-0.1,2.6-8.5,0.2-8.9c-0.4-0.1-2.5-0.1-6,0c-0.3-1.8-0.7-3.6-1.3-5.4
						c2.8-1.3,4.5-2.2,4.8-2.3c2.1-1-0.9-8.8-3.2-8.3c-0.4,0.1-2.4,0.9-5.5,2.3c-0.9-1.5-2-2.9-3.1-4.3c2.1-2.3,3.4-3.8,3.6-4
						c1.6-1.7-4.2-7.8-6.1-6.4c-0.3,0.2-1.8,1.8-4.2,4.2c-1.5-1.1-3.1-2.1-4.7-2.9c1-2.9,1.6-4.7,1.8-5c0.8-2.2-6.8-5.6-8.1-3.6
						c-0.2,0.3-1,2.3-2.3,5.5c-1.7-0.4-3.5-0.7-5.2-0.8c-0.2-3.1-0.3-5-0.3-5.3c-0.1-2.3-8.5-2.6-8.9-0.2c-0.1,0.4-0.1,2.5,0,6
						c-1.5,0.2-3,0.6-4.4,1c-1.5-3.3-2.4-5.3-2.5-5.5c-0.6-1.3-7.1,1.2-8.5,2.8c-0.4,0.4,0.4,2.9,1.9,6.8c-1.3,0.8-2.5,1.7-3.7,2.6
						c-2.6-2.5-4.3-4-4.4-4.2c-1-1-6.2,3.8-6.8,5.8c-0.2,0.5,1.5,2.6,4.4,5.6c-0.9,1.3-1.8,2.6-2.6,4c-3.4-1.3-5.5-2.1-5.7-2.1
						c-1.3-0.5-4.2,5.9-4,7.9c0.1,0.6,2.4,1.8,6.2,3.5c-0.3,1.5-0.6,3-0.8,4.5c-3.6,0.1-5.9,0.2-6.1,0.2
						C593.3,958.2,593,965.2,593.9,967z M637,933.2c15.9-0.4,29.2,12.2,29.6,28.1c0.4,15.9-12.2,29.2-28.1,29.6
						c-15.9,0.4-29.2-12.2-29.6-28.1C608.5,946.8,621,933.6,637,933.2z"/>
					
						<path fill="none" stroke="#1F80D0" stroke-width="2.5" stroke-linecap="round" stroke-linejoin="round" stroke-miterlimit="10" d="
						M638.2,979.8c9.8-0.3,17.6-8.4,17.3-18.3c-0.3-9.8-8.4-17.6-18.3-17.3s-17.6,8.4-17.3,18.3
						C620.2,972.3,628.3,980.1,638.2,979.8z M637.4,950.2c6.5-0.2,11.9,5,12.1,11.5c0.2,6.5-5,11.9-11.5,12.1
						c-6.5,0.2-11.9-5-12.1-11.5C625.8,955.8,630.9,950.4,637.4,950.2z"/>
				</g>
				<g>
					
						<path fill="none" stroke="#1F80D0" stroke-width="2.5" stroke-linecap="round" stroke-linejoin="round" stroke-miterlimit="10" d="
						M1120.1,1004.4c0.3,0.6,3.3,0.9,8,1c0.3,1.8,0.7,3.6,1.2,5.3c-3.7,1.7-6.1,2.8-6.3,2.9c-1.4,0.6,1.3,8.1,3.1,9.6
						c0.5,0.4,3.3-0.5,7.7-2.2c0.9,1.5,1.9,2.9,3,4.2c-2.8,3-4.6,4.9-4.7,5c-1.1,1.2,4.3,7,6.6,7.7c0.6,0.2,2.9-1.7,6.3-5
						c1.5,1.1,3,2,4.6,2.9c-1.4,3.8-2.3,6.2-2.4,6.5c-0.6,1.5,6.7,4.8,9,4.6c0.6-0.1,2-2.7,3.9-7c1.7,0.4,3.4,0.7,5.1,0.9
						c0.1,4.1,0.2,6.7,0.2,6.9c0,1.6,8,1.9,10.1,0.8c0.6-0.3,0.9-3.3,1-8c2.2-0.3,4.3-0.8,6.4-1.5c1.5,3.2,2.5,5.1,2.6,5.5
						c1.1,2.4,10-1,9.4-3.6c-0.1-0.4-1.1-2.7-2.6-6.3c1.7-1.1,3.3-2.2,4.9-3.5c2.6,2.3,4.3,3.8,4.5,4.1c1.9,1.8,8.9-4.7,7.3-6.9
						c-0.2-0.3-2-2.1-4.8-4.8c1.2-1.7,2.4-3.5,3.3-5.3c3.3,1.1,5.4,1.9,5.7,2c2.5,0.9,6.4-7.8,4.1-9.2c-0.3-0.2-2.6-1.2-6.3-2.6
						c0.4-1.9,0.8-3.9,1-5.9c3.5-0.2,5.7-0.3,6.1-0.3c2.6-0.1,2.9-9.6,0.3-10.1c-0.4-0.1-2.9-0.1-6.8,0c-0.3-2.1-0.8-4.1-1.5-6.1
						c3.2-1.5,5.1-2.5,5.5-2.6c2.4-1.1-1-10-3.6-9.4c-0.4,0.1-2.7,1.1-6.3,2.6c-1.1-1.7-2.2-3.3-3.5-4.9c2.3-2.6,3.8-4.3,4.1-4.5
						c1.8-1.9-4.7-8.9-6.9-7.3c-0.3,0.2-2.1,2-4.8,4.8c-1.7-1.2-3.5-2.4-5.3-3.3c1.1-3.3,1.9-5.4,2-5.7c0.9-2.5-7.8-6.4-9.2-4.1
						c-0.2,0.3-1.2,2.6-2.6,6.3c-1.9-0.4-3.9-0.8-5.9-1c-0.2-3.5-0.3-5.7-0.3-6.1c-0.1-2.6-9.6-2.9-10.1-0.3c-0.1,0.4-0.1,2.9,0,6.8
						c-1.7,0.3-3.4,0.7-5,1.1c-1.7-3.7-2.8-6.1-2.9-6.3c-0.6-1.4-8.1,1.3-9.6,3.1c-0.4,0.5,0.5,3.3,2.2,7.7c-1.5,0.9-2.9,1.9-4.2,3
						c-3-2.8-4.9-4.6-5-4.7c-1.2-1.1-7,4.3-7.7,6.6c-0.2,0.6,1.7,2.9,5,6.3c-1.1,1.5-2,3-2.9,4.6c-3.8-1.4-6.2-2.3-6.5-2.4
						c-1.5-0.6-4.8,6.7-4.6,9c0.1,0.6,2.7,2,7,3.9c-0.4,1.7-0.7,3.4-0.9,5.1c-4.1,0.1-6.7,0.2-6.9,0.2
						C1119.3,994.3,1118.9,1002.3,1120.1,1004.4z M1168.9,965.9c18.1-0.5,33.1,13.8,33.6,31.9c0.5,18.1-13.8,33.1-31.9,33.6
						s-33.1-13.8-33.6-31.9C1136.5,981.4,1150.8,966.4,1168.9,965.9z"/>
				</g>
				<g>
					
						<path fill="none" stroke="#1F80D0" stroke-width="2.5" stroke-linecap="round" stroke-linejoin="round" stroke-miterlimit="10" d="
						M701.8,1009.1c0,0,5.9,19.6,13.2,23.7c0,0,19.5-12.3,26.8,15.9c0,0,16.3,4.8,28.8-0.7c0,0-2.1-33.9,25.4-16.6
						c0,0,11.6-17.1,13.1-25.5c0,0-24.4-16.2-0.8-29.4c0,0-6.5-19-16.2-24.2c0,0-23.8,10.2-24.4-14.4c0,0-12.1-4.5-28.8,0.7
						c0,0,3.5,20.9-24.8,16.2c0,0-11.2,8.7-13.2,23.7C701,978.5,721,985.8,701.8,1009.1z M754.4,966.6c14.7-0.4,27,11.3,27.4,26
						c0.4,14.7-11.3,27-26,27.4c-14.7,0.4-27-11.3-27.4-26C728,979.2,739.7,967,754.4,966.6z"/>
				</g>
				<g>
					
						<path fill="none" stroke="#1F80D0" stroke-width="2.5" stroke-linecap="round" stroke-linejoin="round" stroke-miterlimit="10" d="
						M277.7,951.6c0,0,7.2,4.9,10.6,4.3c0,0,3.2-9.2,13.1-1.9c0,0,6.7-2.8,9.3-7.9c0,0-9.7-10.6,4-12.2c0,0-0.7-8.7-2.4-11.9
						c0,0-12.4,1.2-8.1-9.5c0,0-7.2-4.6-11.8-3.7c0,0-5.1,9.7-11.9,1.7c0,0-5.2,1.7-9.3,7.9c0,0,6.7,6-3.9,11.9c0,0-1.4,5.8,2,11.3
						C269.3,941.7,277.9,938.8,277.7,951.6z M283.8,923.6c4.8-4,11.9-3.5,15.9,1.3c4,4.8,3.5,11.9-1.3,15.9
						c-4.8,4-11.9,3.5-15.9-1.3C278.4,934.8,279,927.7,283.8,923.6z"/>
				</g>
				<g>
					
						<path fill="none" stroke="#1F80D0" stroke-width="2.5" stroke-linecap="round" stroke-linejoin="round" stroke-miterlimit="10" d="
						M760.2,904.1c0,0-2.8,8.4-1.2,11.7c0,0,10,0.5,5.5,12.3c0,0,4.6,5.8,10.4,6.9c0,0,7.7-12.5,13.1,0.4c0,0,8.4-3.2,11-5.8
						c0,0-4.6-11.8,7.1-10.6c0,0,2.5-8.4,0.3-12.6c0,0-11-2.3-5-11.2c0,0-3.2-4.6-10.4-6.9c0,0-4,8.3-12.8-0.4c0,0-6.1,0.3-10.6,5.1
						C767.6,893.1,772.8,900.6,760.2,904.1z M789.4,902.2c5.3,3.5,6.7,10.7,3.2,16c-3.5,5.3-10.7,6.7-16,3.2
						c-5.3-3.5-6.7-10.7-3.2-16C776.9,900.1,784.1,898.6,789.4,902.2z"/>
				</g>
				<g>
					
						<path fill="none" stroke="#1F80D0" stroke-width="2.5" stroke-linecap="round" stroke-linejoin="round" stroke-miterlimit="10" d="
						M434.8,898c0,0-9,14-7.6,20.5c0,0,17.8,5.5,4.3,24.8c0,0,5.7,12.5,15.6,17.3c0,0,19.7-19.1,23.5,6.8c0,0,16.6-1.9,22.6-5.4
						c0,0-2.9-23.5,17.6-15.9c0,0,8.3-14,6.3-22.7c0,0-18.8-9.2-4-22.5c0,0-3.6-9.8-15.6-17.3c0,0-11,13.2-23-6.7
						c0,0-11.2-2.3-21.5,4.4C453.2,881.4,459.2,897.5,434.8,898z M488.5,907.9c8,8.8,7.3,22.5-1.6,30.5s-22.5,7.3-30.5-1.6
						c-8-8.8-7.3-22.5,1.6-30.5C466.9,898.4,480.5,899.1,488.5,907.9z"/>
				</g>
				<g>
					
						<path fill="none" stroke="#1F80D0" stroke-width="2.5" stroke-linecap="round" stroke-linejoin="round" stroke-miterlimit="10" d="
						M662.2,905.1c0,0,5,16.6,11.1,19.9c0,0,16.4-10.4,22.6,13.4c0,0,13.8,4,24.3-0.6c0,0-1.7-28.6,21.4-14c0,0,9.7-14.4,11.1-21.5
						c0,0-20.6-13.6-0.6-24.8c0,0-5.5-16-13.7-20.4c0,0-20,8.6-20.5-12.1c0,0-10.2-3.8-24.3,0.6c0,0,3,17.6-20.9,13.7
						c0,0-9.4,7.3-11.1,20C661.5,879.3,678.4,885.5,662.2,905.1z M706.5,869.3c12.4-0.3,22.7,9.5,23.1,21.9
						c0.3,12.4-9.5,22.7-21.9,23.1c-12.4,0.3-22.7-9.5-23.1-21.9C684.3,880,694.1,869.6,706.5,869.3z"/>
					
						<circle fill="none" stroke="#1F80D0" stroke-width="2.5" stroke-linecap="round" stroke-linejoin="round" stroke-miterlimit="10" cx="707.1" cy="891.8" r="13.7"/>
				</g>
				<g>
					
						<path fill="none" stroke="#1F80D0" stroke-width="2.5" stroke-linecap="round" stroke-linejoin="round" stroke-miterlimit="10" d="
						M-27.5,924c0,0,5.9,8.7,10.1,9.6c0,0,7.7-9.1,15.6,3.7c0,0,8.7-0.2,14-4.8c0,0-6.2-16.3,9.9-12.1c0,0,3-10.2,2.5-14.6
						c0,0-14.5-4.2-4.9-14.3c0,0-6.1-8.3-11.7-9.4c0,0-10.1,8.7-14.2-3.3c0,0-6.6-0.3-14,4.8c0,0,5,9.7-9.7,11.8c0,0-4.1,6-2.8,13.7
						C-32.5,909.1-21.6,909.6-27.5,924z M-8.2,895c7.2-2.5,15,1.4,17.4,8.5c2.5,7.2-1.4,15-8.5,17.4c-7.2,2.5-15-1.4-17.4-8.5
						C-19.2,905.3-15.3,897.5-8.2,895z"/>
					
						<circle fill="none" stroke="#1F80D0" stroke-width="2.5" stroke-linecap="round" stroke-linejoin="round" stroke-miterlimit="10" cx="-3.7" cy="908" r="8.4"/>
				</g>
				<g>
					
						<path fill="none" stroke="#1F80D0" stroke-width="2.5" stroke-linecap="round" stroke-linejoin="round" stroke-miterlimit="10" d="
						M1071.3,917.6c0,0,4.6,15.2,10.2,18.3c0,0,15.1-9.5,20.7,12.3c0,0,12.6,3.7,22.3-0.6c0,0-1.6-26.2,19.6-12.9
						c0,0,8.9-13.2,10.2-19.7c0,0-18.9-12.5-0.6-22.7c0,0-5-14.7-12.5-18.7c0,0-18.4,7.9-18.8-11.1c0,0-9.4-3.5-22.2,0.6
						c0,0,2.7,16.2-19.2,12.6c0,0-8.6,6.7-10.2,18.4C1070.7,894,1086.2,899.6,1071.3,917.6z M1112,884.8
						c11.4-0.3,20.9,8.7,21.2,20.1c0.3,11.4-8.7,20.9-20.1,21.2s-20.9-8.7-21.2-20.1S1100.6,885.1,1112,884.8z"/>
					
						<circle fill="none" stroke="#1F80D0" stroke-width="2.5" stroke-linecap="round" stroke-linejoin="round" stroke-miterlimit="10" cx="1112.5" cy="905.4" r="12.6"/>
				</g>
				<g>
					
						<path fill="none" stroke="#1F80D0" stroke-width="2.5" stroke-linecap="round" stroke-linejoin="round" stroke-miterlimit="10" d="
						M528.7,931.1c0,0,6.1,10,10.7,11.2c0,0,9-9.6,17.1,4.9c0,0,9.7,0.3,15.8-4.6c0,0-6.1-18.5,11.6-12.9c0,0,3.9-11.1,3.6-16
						c0,0-15.9-5.4-4.7-16.2c0,0-6.3-9.6-12.5-11c0,0-11.7,9.1-15.6-4.4c0,0-7.4-0.7-15.8,4.6c0,0,5,11.1-11.4,12.6
						c0,0-4.9,6.4-3.9,15.1C523.8,914.3,536,915.5,528.7,931.1z M551.7,900c8.1-2.3,16.6,2.3,18.9,10.4c2.3,8.1-2.3,16.6-10.4,18.9
						c-8.1,2.3-16.6-2.3-18.9-10.4C538.9,910.8,543.6,902.4,551.7,900z"/>
					
						<circle fill="none" stroke="#1F80D0" stroke-width="2.5" stroke-linecap="round" stroke-linejoin="round" stroke-miterlimit="10" cx="555.9" cy="914.7" r="9.3"/>
				</g>
				<g>
					
						<path fill="none" stroke="#1F80D0" stroke-width="2.5" stroke-linecap="round" stroke-linejoin="round" stroke-miterlimit="10" d="
						M963.4,876.2c0.5,0.1,2.5,0.6,5.8,1.4c-0.2,1.4-0.4,2.8-0.5,4.3c-3.3,0.1-5.4,0.3-5.6,0.4c-1.3,0.7-2.4,7.7-0.1,7.5
						c0.5-0.1,2.6-0.2,5.9-0.3c0.1,0.9,0.3,1.8,0.4,2.6c-3.2,0.9-5.2,1.6-5.4,1.7c-1.1,1-0.5,8.1,1.7,7.3c0.4-0.2,2.5-0.8,5.7-1.7
						c0.4,1,0.8,2,1.2,3c-2.9,1.7-4.6,2.8-4.7,3c-0.8,1.3,1.6,8,3.5,6.6c0.4-0.3,2.2-1.4,5-3.1c0.8,1.2,1.7,2.3,2.7,3.4
						c-2.3,2.5-3.6,4-3.7,4.2c-0.4,1.5,3.8,7.2,5.2,5.4c0.3-0.4,1.7-2,4-4.4c0.7,0.6,1.4,1.1,2.2,1.6c-1.6,3-2.6,4.8-2.6,5
						c-0.1,1.5,5.4,6.1,6.3,4c0.2-0.4,1.2-2.3,2.8-5.2c1,0.4,2,0.9,3,1.2c-0.8,3.3-1.3,5.3-1.2,5.5c0.3,1.5,6.8,4.5,7.1,2.2
						c0.1-0.5,0.6-2.5,1.4-5.8c1.4,0.2,2.8,0.4,4.3,0.5c0.1,3.3,0.3,5.4,0.4,5.6c0.7,1.3,7.7,2.4,7.5,0.1c-0.1-0.5-0.2-2.6-0.3-5.9
						c1.1-0.1,2.1-0.3,3.1-0.5c0.8,2.7,1.3,4.4,1.4,4.7c1.1,2.9,7.3,0.8,6.7-1.2c-0.1-0.3-0.6-2.2-1.5-5.4c1.2-0.4,2.4-0.9,3.5-1.5
						c1.4,2.4,2.3,3.9,2.6,4.2c1.8,2.5,7.2-1.1,6.2-2.8c-0.1-0.2-1.2-2-2.8-4.8c1.4-1,2.6-2,3.9-3.1c2,1.9,3.3,3.1,3.6,3.3
						c2.4,1.9,6.6-3,5.2-4.4c-0.2-0.2-1.7-1.6-4-3.9c0.7-0.9,1.3-1.8,1.9-2.7c2.4,1.3,4,2.2,4.3,2.3c2.8,1.2,5.7-4.6,3.9-5.6
						c-0.2-0.1-2-1.2-4.9-2.8c0.5-1.2,1-2.3,1.4-3.5c2.7,0.7,4.4,1.1,4.8,1.1c3,0.5,4.4-5.9,2.4-6.4c-0.3-0.1-2.2-0.6-5.4-1.5
						c0.3-1.6,0.4-3.3,0.5-4.9c2.8-0.1,4.5-0.2,4.9-0.2c3-0.4,2.5-6.8,0.5-6.8c-0.3,0-2.3,0-5.6,0.1c-0.1-1.1-0.3-2.2-0.5-3.2
						c2.7-0.8,4.3-1.3,4.7-1.4c2.9-1.1,0.8-7.3-1.2-6.7c-0.3,0.1-2.2,0.6-5.4,1.5c-0.4-1.2-0.9-2.4-1.5-3.5c2.4-1.4,3.9-2.3,4.2-2.6
						c2.5-1.8-1.1-7.2-2.8-6.2c-0.2,0.1-2,1.2-4.8,2.8c-1-1.4-2-2.6-3.1-3.9c1.9-2,3.1-3.3,3.3-3.6c1.9-2.4-3-6.6-4.4-5.2
						c-0.2,0.2-1.6,1.7-3.9,4c-0.9-0.7-1.8-1.3-2.7-1.9c1.3-2.4,2.2-4,2.3-4.3c1.2-2.8-4.6-5.7-5.6-3.9c-0.1,0.2-1.2,2-2.8,4.9
						c-1.2-0.5-2.3-1-3.5-1.4c0.7-2.7,1.1-4.4,1.1-4.8c0.5-3-5.9-4.4-6.4-2.4c-0.1,0.3-0.6,2.2-1.5,5.4c-1.6-0.3-3.3-0.4-4.9-0.5
						c-0.1-2.8-0.2-4.5-0.2-4.9c-0.4-3-6.8-2.5-6.8-0.5c0,0.3,0,2.3,0.1,5.6c-0.9,0.1-1.9,0.3-2.8,0.4c-0.9-3.2-1.6-5.2-1.7-5.4
						c-1-1.1-8.1-0.5-7.3,1.7c0.2,0.4,0.8,2.5,1.7,5.7c-1,0.4-2,0.8-3,1.2c-1.7-2.9-2.8-4.6-3-4.7c-1.3-0.8-8,1.6-6.6,3.5
						c0.3,0.4,1.4,2.2,3.1,5.1c-1.2,0.8-2.3,1.7-3.4,2.7c-2.5-2.3-4-3.6-4.2-3.7c-1.5-0.4-7.2,3.8-5.4,5.2c0.4,0.3,2,1.7,4.4,4
						c-0.6,0.7-1.1,1.4-1.6,2.2c-3-1.6-4.8-2.6-5-2.6c-1.5-0.1-6.1,5.4-4,6.3c0.4,0.2,2.3,1.2,5.2,2.8c-0.4,1-0.9,1.9-1.2,3
						c-3.3-0.8-5.3-1.3-5.5-1.2C964.1,869.4,961.1,875.8,963.4,876.2z M1004.2,883.7l-17.7,0.5c0.1-4.9,1.6-9.4,4.3-13.2
						L1004.2,883.7z M1029.3,870c2.8,3.6,4.6,8.1,4.9,13l-17.7,0.5L1029.3,870z M1016.7,888.5l17.3-0.4c-0.7,4.5-2.5,8.5-5.3,11.9
						L1016.7,888.5z M1004.3,888.8l-11.4,12c-2.9-3.2-5-7.1-5.9-11.6L1004.3,888.8z M996.8,904.2l11.3-11.8l0.4,16.1
						C1004.2,908.1,1000.2,906.6,996.8,904.2z M1013.6,908.3l-0.4-16.1l11.8,11.3C1021.8,906,1017.9,907.7,1013.6,908.3z
						 M1025.8,866.3l-12.9,13.6l-0.5-19.1C1017.4,861.2,1022.1,863.2,1025.8,866.3z M1007.2,860.9l0.5,19.1l-13.6-12.9
						C997.7,863.8,1002.2,861.6,1007.2,860.9z"/>
				</g>
				<g>
					
						<path fill="none" stroke="#1F80D0" stroke-width="2.5" stroke-linecap="round" stroke-linejoin="round" stroke-miterlimit="10" d="
						M814.8,923.2c0.7,0.1,3.8,0.9,8.6,2.1c-0.4,2.1-0.6,4.2-0.7,6.4c-5,0.2-8,0.4-8.3,0.5c-2,1.1-3.6,11.5-0.2,11.1
						c0.7-0.1,3.9-0.2,8.8-0.4c0.2,1.3,0.4,2.6,0.6,3.9c-4.8,1.4-7.7,2.3-8,2.5c-1.7,1.5-0.7,12,2.5,10.8c0.7-0.3,3.7-1.2,8.5-2.5
						c0.6,1.5,1.1,3,1.8,4.4c-4.3,2.6-6.8,4.2-7,4.4c-1.2,1.9,2.4,11.8,5.1,9.8c0.6-0.4,3.3-2.1,7.5-4.6c1.2,1.8,2.6,3.4,4,5
						c-3.4,3.7-5.4,5.9-5.5,6.2c-0.7,2.2,5.6,10.7,7.7,8c0.4-0.6,2.6-2.9,5.9-6.5c1,0.8,2.1,1.6,3.2,2.3c-2.4,4.4-3.8,7.1-3.8,7.4
						c-0.1,2.2,8,9,9.4,5.9c0.3-0.6,1.8-3.5,4.2-7.8c1.4,0.7,2.9,1.3,4.4,1.8c-1.2,4.8-1.9,7.8-1.8,8.1c0.5,2.2,10,6.7,10.6,3.3
						c0.1-0.7,0.9-3.8,2.1-8.6c2.1,0.4,4.2,0.6,6.4,0.7c0.2,5,0.4,8,0.5,8.3c1.1,2,11.5,3.6,11.1,0.2c-0.1-0.7-0.2-3.9-0.4-8.8
						c1.6-0.2,3.1-0.5,4.6-0.7c1.1,4,1.9,6.5,2.1,7c1.7,4.2,10.8,1.2,10-1.7c-0.1-0.4-0.9-3.3-2.2-8c1.8-0.7,3.5-1.4,5.2-2.2
						c2.1,3.5,3.5,5.7,3.8,6.2c2.7,3.7,10.7-1.6,9.2-4.2c-0.2-0.4-1.7-3-4.1-7.2c2-1.4,3.9-3,5.7-4.6c3,2.8,4.9,4.5,5.4,4.9
						c3.6,2.8,9.9-4.5,7.7-6.6c-0.3-0.3-2.5-2.4-6-5.8c1-1.3,2-2.6,2.9-3.9c3.6,2,5.9,3.2,6.4,3.5c4.2,1.8,8.5-6.8,5.8-8.3
						c-0.4-0.2-3-1.7-7.2-4.2c0.8-1.7,1.5-3.5,2.1-5.3c4,1,6.5,1.6,7.1,1.7c4.5,0.7,6.5-8.7,3.5-9.5c-0.4-0.1-3.3-0.9-8-2.2
						c0.4-2.4,0.6-4.8,0.8-7.3c4.1-0.2,6.7-0.3,7.3-0.4c4.5-0.6,3.8-10.2,0.7-10.1c-0.4,0-3.4,0.1-8.3,0.2c-0.2-1.6-0.5-3.2-0.8-4.8
						c3.9-1.1,6.5-1.9,7-2.1c4.2-1.7,1.2-10.8-1.7-10c-0.4,0.1-3.3,0.9-8,2.2c-0.7-1.8-1.4-3.5-2.2-5.2c3.5-2.1,5.7-3.5,6.2-3.8
						c3.7-2.7-1.6-10.7-4.2-9.2c-0.4,0.2-3,1.7-7.2,4.1c-1.4-2-3-3.9-4.6-5.7c2.8-3,4.5-4.9,4.9-5.4c2.8-3.6-4.5-9.9-6.6-7.7
						c-0.3,0.3-2.4,2.5-5.8,6c-1.3-1-2.6-2-4-2.9c2-3.6,3.2-5.9,3.4-6.4c1.8-4.2-6.8-8.5-8.3-5.8c-0.2,0.4-1.7,3-4.2,7.2
						c-1.7-0.8-3.5-1.5-5.3-2.1c1-4,1.6-6.5,1.7-7.1c0.7-4.5-8.7-6.5-9.5-3.5c-0.1,0.4-0.9,3.3-2.2,8c-2.4-0.4-4.8-0.6-7.3-0.8
						c-0.2-4.1-0.3-6.7-0.4-7.3c-0.6-4.5-10.2-3.8-10.1-0.7c0,0.4,0.1,3.5,0.2,8.3c-1.4,0.2-2.8,0.4-4.1,0.6c-1.4-4.8-2.3-7.7-2.5-8
						c-1.5-1.7-12-0.7-10.8,2.5c0.3,0.7,1.2,3.7,2.5,8.5c-1.5,0.6-3,1.1-4.4,1.8c-2.6-4.3-4.2-6.8-4.4-7c-1.9-1.2-11.8,2.4-9.8,5.1
						c0.4,0.6,2.1,3.3,4.6,7.5c-1.8,1.2-3.4,2.6-5,4c-3.6-3.4-5.9-5.4-6.2-5.5c-2.2-0.7-10.7,5.6-8,7.7c0.6,0.4,2.9,2.6,6.5,5.9
						c-0.8,1-1.6,2.1-2.3,3.2c-4.4-2.4-7.1-3.8-7.4-3.8c-2.2-0.1-9,8-5.9,9.4c0.6,0.3,3.5,1.8,7.8,4.2c-0.7,1.4-1.3,2.9-1.8,4.4
						c-4.8-1.2-7.8-1.9-8.1-1.8C815.9,913,811.5,922.6,814.8,923.2z M883.4,887c26.9-0.7,49.3,20.6,49.9,47.5
						c0.7,26.9-20.6,49.3-47.5,49.9c-26.9,0.7-49.3-20.6-49.9-47.5C835.3,910,856.5,887.7,883.4,887z"/>
					
						<path fill="none" stroke="#1F80D0" stroke-width="2.5" stroke-linecap="round" stroke-linejoin="round" stroke-miterlimit="10" d="
						M885.6,972.8c20.5-0.5,36.7-17.6,36.2-38.1c-0.5-20.5-17.6-36.7-38.1-36.2c-20.5,0.5-36.7,17.6-36.2,38.1
						C848.1,957.1,865.1,973.3,885.6,972.8z M884,910.6c13.8-0.4,25.3,10.6,25.7,24.4c0.4,13.8-10.6,25.3-24.4,25.7
						c-13.8,0.4-25.3-10.6-25.7-24.4C859.3,922.5,870.2,911,884,910.6z"/>
				</g>
			</g>
		</g>
		<g opacity="0.5" clip-path="url(#SVGID_2_)">
			<g>
				<g>
					
						<path fill="none" stroke="#1F80D0" stroke-width="2.5" stroke-linecap="round" stroke-linejoin="round" stroke-miterlimit="10" d="
						M821.3,50.1c0.4,0.6,6.9,1.5,15.7,2.4c1.7,7.6,5,14.5,9.4,20.6c-5.4,6.9-9.4,12.1-9.7,12.8c-1.1,2.2,6.9,11,12.5,11.9
						c0.8,0.1,6.2-4,13.3-9.8c6.2,3.9,13.2,6.5,20.7,7.8c1.1,9,2,15.7,2.2,16.5c0.8,2.3,12.6,2.9,17.3-0.4c0.7-0.5,1.5-7.4,2.5-16.8
						c7.7-1.8,14.7-5.1,20.9-9.7c7.9,5.7,13.9,9.9,14.7,10.1c2.8,0.5,11.9-12.5,11.9-12.5s-5.1-5.8-12-13.7
						c3.8-6.2,6.4-13.1,7.6-20.6c9.6-1.5,16.7-2.8,17.4-3.3c2.3-1.6-0.4-17.3-0.4-17.3s-7.5-0.5-17.8-1.2
						c-1.7-7.5-4.9-14.3-9.3-20.3c5.5-7.6,9.5-13.4,9.7-14.3c0.5-2.8-12.5-11.9-12.5-11.9s-5.5,4.8-13,11.4c-6.4-4-13.6-6.8-21.4-8
						c-1.4-9-2.6-15.7-3.1-16.4c-1.6-2.3-17.3,0.4-17.3,0.4s-0.5,7-1.1,16.8c-7.3,1.7-14.1,4.8-20,9c-6.7-5.2-11.6-9-12.3-9.4
						c-2.2-1.1-11,6.9-11.9,12.5c-0.1,0.7,3.7,5.8,9.3,12.6c-4.1,6.4-6.9,13.7-8.2,21.5c-8.5,1-14.8,1.8-15.5,2.1
						C818.6,33.6,818.1,45.4,821.3,50.1z M891.7,9.8c16.6-0.4,30.3,12.8,30.6,29.3c0.4,16.6-12.8,30.3-29.3,30.6
						c-16.6,0.4-30.3-12.8-30.6-29.3C862,23.9,875.1,10.2,891.7,9.8z"/>
				</g>
				<g>
					
						<path fill="none" stroke="#1F80D0" stroke-width="2.5" stroke-linecap="round" stroke-linejoin="round" stroke-miterlimit="10" d="
						M184.7,26.9c0.4,0.5,5.6,1.2,12.8,1.9c1.4,6.2,4.1,11.8,7.7,16.8c-4.4,5.6-7.7,9.8-7.9,10.4c-0.9,1.8,5.6,8.9,10.2,9.7
						c0.6,0.1,5-3.3,10.8-8c5.1,3.1,10.8,5.3,16.9,6.3c0.9,7.3,1.6,12.8,1.8,13.4c0.7,1.9,10.3,2.3,14.1-0.3c0.5-0.4,1.3-6,2-13.7
						c6.3-1.4,12-4.2,17-7.9c6.4,4.7,11.3,8.1,12,8.2c2.3,0.4,9.7-10.2,9.7-10.2s-4.1-4.7-9.8-11.1c3.1-5,5.2-10.7,6.2-16.7
						c7.8-1.2,13.6-2.3,14.2-2.7C304.2,21.8,302,9,302,9s-6.1-0.4-14.5-1c-1.4-6.1-4-11.7-7.5-16.5c4.5-6.2,7.8-10.9,7.9-11.6
						c0.4-2.3-10.2-9.7-10.2-9.7s-4.5,3.9-10.6,9.3c-5.2-3.3-11.1-5.5-17.4-6.5c-1.2-7.4-2.2-12.8-2.6-13.4
						c-1.3-1.9-14.1,0.3-14.1,0.3s-0.4,5.7-0.9,13.7c-6,1.4-11.5,3.9-16.3,7.3c-5.4-4.3-9.5-7.4-10-7.6c-1.8-0.9-8.9,5.6-9.7,10.2
						c-0.1,0.6,3,4.7,7.6,10.2c-3.4,5.2-5.6,11.2-6.7,17.5c-6.9,0.8-12,1.5-12.6,1.7C182.5,13.5,182.1,23.1,184.7,26.9z M241.8-17.7
						c20-0.4,36.6,15.4,37,35.5c0.4,20-15.4,36.6-35.5,37c-20,0.4-36.6-15.4-37-35.5S221.7-17.3,241.8-17.7z"/>
					
						<circle fill="none" stroke="#1F80D0" stroke-width="2.5" stroke-linecap="round" stroke-linejoin="round" stroke-miterlimit="10" cx="242.5" cy="18.5" r="25.7"/>
				</g>
				<g>
					
						<path fill="none" stroke="#1F80D0" stroke-width="2.5" stroke-linecap="round" stroke-linejoin="round" stroke-miterlimit="10" d="
						M1092.8-5.4c0.3,0.4,4.8,1,11,1.7c1.2,5.3,3.5,10.2,6.6,14.4c-3.8,4.8-6.6,8.5-6.8,9c-0.7,1.6,4.8,7.7,8.7,8.4
						c0.5,0.1,4.3-2.8,9.3-6.9c4.4,2.7,9.3,4.6,14.5,5.4c0.8,6.3,1.4,11,1.6,11.5c0.6,1.6,8.8,2,12.1-0.3c0.5-0.3,1.1-5.2,1.7-11.7
						c5.4-1.2,10.3-3.6,14.6-6.8c5.5,4,9.7,6.9,10.3,7.1c2,0.3,8.4-8.7,8.4-8.7s-3.5-4.1-8.4-9.6c2.6-4.3,4.5-9.2,5.3-14.4
						c6.7-1.1,11.7-1.9,12.2-2.3c1.6-1.1-0.3-12.1-0.3-12.1s-5.3-0.4-12.5-0.8c-1.2-5.2-3.5-10-6.5-14.2c3.9-5.3,6.7-9.4,6.8-10
						c0.3-2-8.7-8.4-8.7-8.4s-3.8,3.4-9.1,8c-4.5-2.8-9.6-4.8-15-5.6c-1-6.3-1.9-11-2.2-11.5c-1.1-1.6-12.1,0.3-12.1,0.3
						s-0.3,4.9-0.8,11.8c-5.1,1.2-9.9,3.3-14,6.3c-4.7-3.7-8.1-6.3-8.6-6.6c-1.6-0.7-7.7,4.8-8.4,8.7c-0.1,0.5,2.6,4.1,6.5,8.8
						c-2.9,4.5-4.9,9.6-5.7,15.1c-6,0.7-10.3,1.3-10.8,1.5C1090.9-16.9,1090.6-8.6,1092.8-5.4z M1141.9-43.8
						c17.2-0.4,31.5,13.3,31.8,30.5c0.4,17.2-13.3,31.5-30.5,31.8s-31.5-13.3-31.8-30.5C1111-29.2,1124.7-43.4,1141.9-43.8z"/>
					
						<circle fill="none" stroke="#1F80D0" stroke-width="2.5" stroke-linecap="round" stroke-linejoin="round" stroke-miterlimit="10" cx="1142.6" cy="-12.6" r="22.1"/>
				</g>
				<g>
					
						<path fill="none" stroke="#1F80D0" stroke-width="2.5" stroke-linecap="round" stroke-linejoin="round" stroke-miterlimit="10" d="
						M508,47.1c0.2,0.3,3.3,0.6,7.5,1c0.9,3.6,2.5,6.8,4.6,9.6c-2.5,3.3-4.3,5.8-4.5,6.1c-0.5,1.1,3.4,5.1,6,5.5
						c0.4,0.1,2.9-1.9,6.2-4.8c3,1.8,6.3,3,9.8,3.5c0.6,4.2,1.1,7.4,1.2,7.8c0.4,1.1,6,1.2,8.1-0.3c0.3-0.2,0.7-3.5,1-7.9
						c3.6-0.9,6.9-2.6,9.8-4.7c3.8,2.6,6.6,4.6,7.1,4.6c1.3,0.2,5.5-6,5.5-6s-2.4-2.7-5.8-6.4c1.7-3,2.9-6.3,3.4-9.8
						c4.5-0.8,7.9-1.5,8.2-1.7c1.1-0.8-0.3-8.1-0.3-8.1s-3.6-0.2-8.4-0.4c-0.9-3.5-2.5-6.7-4.6-9.5c2.6-3.7,4.4-6.4,4.5-6.8
						c0.2-1.3-6-5.5-6-5.5s-2.6,2.3-6,5.5c-3.1-1.8-6.5-3.1-10.2-3.6c-0.8-4.3-1.4-7.4-1.6-7.7c-0.8-1.1-8.1,0.3-8.1,0.3
						s-0.2,3.3-0.4,7.9c-3.4,0.9-6.6,2.4-9.4,4.4c-3.2-2.4-5.6-4.2-5.9-4.3c-1.1-0.5-5.1,3.4-5.5,6c-0.1,0.4,1.8,2.7,4.5,5.9
						c-1.9,3.1-3.1,6.5-3.7,10.2c-4,0.6-7,1-7.3,1.1C506.6,39.4,506.4,45,508,47.1z M540.6,20.6c11.6-0.5,21.4,8.6,21.8,20.2
						c0.5,11.6-8.6,21.4-20.2,21.8s-21.4-8.6-21.8-20.2S529,21.1,540.6,20.6z"/>
					
						<circle fill="none" stroke="#1F80D0" stroke-width="2.5" stroke-linecap="round" stroke-linejoin="round" stroke-miterlimit="10" cx="541.4" cy="41.6" r="14.9"/>
				</g>
				<g>
					
						<path fill="none" stroke="#1F80D0" stroke-width="2.5" stroke-linecap="round" stroke-linejoin="round" stroke-miterlimit="10" d="
						M732.8-11.2c0.3,0.5,3.1,0.8,7.6,1c0.3,1.7,0.6,3.4,1.1,5c-3.6,1.6-5.8,2.6-6,2.7c-1.4,0.6,1.2,7.8,3,9.2
						c0.5,0.4,3.2-0.4,7.4-2.1c0.9,1.4,1.8,2.7,2.8,4c-2.7,2.9-4.4,4.6-4.5,4.8c-1,1.1,4.1,6.7,6.2,7.4c0.6,0.2,2.8-1.6,6.1-4.7
						c1.4,1,2.8,2,4.4,2.8c-1.4,3.7-2.3,5.9-2.3,6.2c-0.5,1.4,6.3,4.6,8.6,4.4c0.6-0.1,2-2.6,3.8-6.7c1.6,0.4,3.2,0.7,4.8,0.9
						c0.1,3.9,0.2,6.4,0.2,6.6c0,1.5,7.6,1.9,9.6,0.8c0.5-0.3,0.8-3.1,1-7.6c2.1-0.3,4.1-0.8,6.1-1.4c1.4,3,2.4,4.9,2.5,5.2
						c1,2.3,9.5-0.9,9-3.4c-0.1-0.4-1-2.6-2.5-6c1.6-1,3.2-2.1,4.7-3.4c2.5,2.2,4.1,3.7,4.3,3.9c1.8,1.7,8.5-4.5,7-6.6
						c-0.2-0.3-1.9-2-4.6-4.6c1.2-1.6,2.3-3.3,3.2-5.1c3.1,1.1,5.1,1.8,5.5,1.9c2.4,0.9,6.1-7.4,3.9-8.8c-0.3-0.2-2.5-1.1-6-2.5
						c0.4-1.9,0.8-3.7,0.9-5.7c3.3-0.2,5.4-0.3,5.8-0.3c2.5-0.1,2.8-9.2,0.3-9.6c-0.4-0.1-2.8-0.1-6.5,0c-0.3-2-0.8-4-1.4-5.8
						c3-1.4,4.9-2.4,5.2-2.5c2.3-1-0.9-9.5-3.4-9c-0.4,0.1-2.6,1-6,2.5c-1-1.6-2.1-3.2-3.4-4.7c2.2-2.5,3.7-4.1,3.9-4.3
						c1.7-1.8-4.5-8.5-6.6-7c-0.3,0.2-2,1.9-4.6,4.6c-1.6-1.2-3.3-2.3-5.1-3.2c1.1-3.1,1.8-5.1,1.9-5.5c0.9-2.4-7.4-6.1-8.8-3.9
						c-0.2,0.3-1.1,2.5-2.5,6c-1.9-0.4-3.7-0.8-5.7-0.9c-0.2-3.3-0.3-5.4-0.3-5.8c-0.1-2.5-9.2-2.8-9.6-0.3c-0.1,0.4-0.1,2.8,0,6.5
						c-1.6,0.3-3.2,0.6-4.8,1.1c-1.6-3.6-2.6-5.8-2.7-6c-0.6-1.4-7.8,1.2-9.2,3c-0.4,0.5,0.4,3.2,2.1,7.4c-1.4,0.9-2.7,1.8-4,2.8
						c-2.9-2.7-4.6-4.4-4.8-4.5c-1.1-1-6.7,4.1-7.4,6.2c-0.2,0.6,1.6,2.8,4.7,6.1c-1,1.4-2,2.8-2.8,4.4c-3.7-1.4-5.9-2.3-6.2-2.3
						c-1.4-0.5-4.6,6.3-4.4,8.6c0.1,0.6,2.6,2,6.7,3.8c-0.4,1.6-0.7,3.2-0.9,4.8c-3.9,0.1-6.4,0.2-6.6,0.2
						C732.1-20.8,731.8-13.2,732.8-11.2z M779.9-35.5c10.6-0.2,19.3,8.2,19.6,18.7c0.2,10.6-8.2,19.3-18.7,19.6
						C770.2,3,761.4-5.4,761.2-16C761-26.6,769.3-35.3,779.9-35.5z"/>
				</g>
				<g>
					
						<path fill="none" stroke="#1F80D0" stroke-width="2.5" stroke-linecap="round" stroke-linejoin="round" stroke-miterlimit="10" d="
						M458.8-20.6c0.2,0.4,2.3,0.6,5.7,0.7c0.2,1.3,0.5,2.6,0.8,3.8c-2.7,1.2-4.4,2-4.5,2c-1,0.5,0.9,5.8,2.2,6.9
						c0.4,0.3,2.4-0.3,5.6-1.5c0.6,1.1,1.4,2.1,2.1,3c-2,2.1-3.3,3.5-3.4,3.6c-0.8,0.8,3.1,5,4.7,5.5c0.4,0.1,2.1-1.2,4.6-3.5
						c1,0.8,2.1,1.5,3.3,2.1c-1,2.7-1.7,4.5-1.8,4.6c-0.4,1.1,4.8,3.5,6.5,3.3c0.5,0,1.5-1.9,2.8-5c1.2,0.3,2.4,0.5,3.6,0.6
						c0.1,2.9,0.1,4.8,0.1,5c0,1.1,5.7,1.4,7.2,0.6c0.4-0.2,0.6-2.3,0.7-5.7c1.6-0.2,3.1-0.6,4.6-1.1c1.1,2.3,1.8,3.7,1.9,3.9
						c0.8,1.7,7.2-0.7,6.7-2.6c-0.1-0.3-0.7-1.9-1.9-4.5c1.2-0.8,2.4-1.6,3.5-2.5c1.9,1.7,3,2.7,3.2,2.9c1.4,1.3,6.4-3.4,5.3-4.9
						c-0.2-0.2-1.4-1.5-3.4-3.5c0.9-1.2,1.7-2.5,2.4-3.8c2.4,0.8,3.9,1.4,4.1,1.4c1.8,0.7,4.6-5.6,2.9-6.6c-0.2-0.2-1.9-0.8-4.5-1.9
						c0.3-1.4,0.6-2.8,0.7-4.3c2.5-0.1,4.1-0.2,4.4-0.2c1.9,0,2.1-6.9,0.2-7.2c-0.3-0.1-2.1-0.1-4.9,0c-0.2-1.5-0.6-3-1-4.4
						c2.3-1.1,3.7-1.8,3.9-1.9c1.7-0.8-0.7-7.2-2.6-6.7c-0.3,0.1-1.9,0.7-4.5,1.9c-0.8-1.2-1.6-2.4-2.5-3.5c1.7-1.9,2.7-3,2.9-3.2
						c1.3-1.4-3.4-6.4-4.9-5.3c-0.2,0.2-1.5,1.4-3.5,3.4c-1.2-0.9-2.5-1.7-3.8-2.4c0.8-2.4,1.4-3.9,1.4-4.1c0.7-1.8-5.6-4.6-6.6-2.9
						c-0.2,0.2-0.8,1.9-1.9,4.5c-1.4-0.3-2.8-0.6-4.3-0.7c-0.1-2.5-0.2-4.1-0.2-4.4c0-1.9-6.9-2.1-7.2-0.2c-0.1,0.3-0.1,2.1,0,4.9
						c-1.2,0.2-2.4,0.5-3.6,0.8c-1.2-2.7-2-4.4-2-4.5c-0.5-1-5.8,0.9-6.9,2.2c-0.3,0.4,0.3,2.4,1.5,5.6c-1.1,0.6-2.1,1.4-3,2.1
						c-2.1-2-3.5-3.3-3.6-3.4c-0.8-0.8-5,3.1-5.5,4.7c-0.1,0.4,1.2,2.1,3.5,4.6c-0.8,1-1.5,2.1-2.1,3.3c-2.7-1-4.5-1.7-4.6-1.8
						c-1.1-0.4-3.5,4.8-3.3,6.5c0,0.5,1.9,1.5,5,2.8c-0.3,1.2-0.5,2.4-0.6,3.6c-2.9,0.1-4.8,0.1-5,0.1
						C458.3-27.8,458-22.1,458.8-20.6z M494.1-38.9c7.9-0.2,14.5,6.1,14.7,14.1c0.2,7.9-6.1,14.5-14.1,14.7
						c-7.9,0.2-14.5-6.1-14.7-14.1C479.9-32.2,486.2-38.7,494.1-38.9z"/>
				</g>
				<g>
					
						<path fill="none" stroke="#1F80D0" stroke-width="2.5" stroke-linecap="round" stroke-linejoin="round" stroke-miterlimit="10" d="
						M73.2-12c0.2,0.4,2.3,0.6,5.7,0.7c0.2,1.3,0.5,2.6,0.8,3.8c-2.7,1.2-4.4,2-4.5,2c-1,0.5,0.9,5.8,2.2,6.9
						c0.4,0.3,2.4-0.3,5.6-1.5c0.6,1.1,1.4,2.1,2.1,3c-2,2.1-3.3,3.5-3.4,3.6c-0.8,0.8,3.1,5,4.7,5.5c0.4,0.1,2.1-1.2,4.6-3.5
						c1,0.8,2.1,1.5,3.3,2.1c-1,2.7-1.7,4.5-1.8,4.6c-0.4,1.1,4.8,3.5,6.5,3.3c0.5,0,1.5-1.9,2.8-5c1.2,0.3,2.4,0.5,3.6,0.6
						c0.1,2.9,0.1,4.8,0.1,5c0,1.1,5.7,1.4,7.2,0.6c0.4-0.2,0.6-2.3,0.7-5.7c1.6-0.2,3.1-0.6,4.6-1.1c1.1,2.3,1.8,3.7,1.9,3.9
						c0.8,1.7,7.2-0.7,6.7-2.6c-0.1-0.3-0.7-1.9-1.9-4.5c1.2-0.8,2.4-1.6,3.5-2.5c1.9,1.7,3,2.7,3.2,2.9c1.4,1.3,6.4-3.4,5.3-4.9
						c-0.2-0.2-1.4-1.5-3.4-3.5c0.9-1.2,1.7-2.5,2.4-3.8c2.4,0.8,3.9,1.4,4.1,1.4c1.8,0.7,4.6-5.6,2.9-6.6c-0.2-0.2-1.9-0.8-4.5-1.9
						c0.3-1.4,0.6-2.8,0.7-4.3c2.5-0.1,4.1-0.2,4.4-0.2c1.9,0,2.1-6.9,0.2-7.2c-0.3-0.1-2.1-0.1-4.9,0c-0.2-1.5-0.6-3-1-4.4
						c2.3-1.1,3.7-1.8,3.9-1.9c1.7-0.8-0.7-7.2-2.6-6.7c-0.3,0.1-1.9,0.7-4.5,1.9c-0.8-1.2-1.6-2.4-2.5-3.5c1.7-1.9,2.7-3,2.9-3.2
						c1.3-1.4-3.4-6.4-4.9-5.3c-0.2,0.2-1.5,1.4-3.5,3.4c-1.2-0.9-2.5-1.7-3.8-2.4c0.8-2.4,1.4-3.9,1.4-4.1c0.7-1.8-5.6-4.6-6.6-2.9
						c-0.2,0.2-0.8,1.9-1.9,4.5c-1.4-0.3-2.8-0.6-4.3-0.7c-0.1-2.5-0.2-4.1-0.2-4.4c0-1.9-6.9-2.1-7.2-0.2c-0.1,0.3-0.1,2.1,0,4.9
						c-1.2,0.2-2.4,0.5-3.6,0.8c-1.2-2.7-2-4.4-2-4.5c-0.5-1-5.8,0.9-6.9,2.2c-0.3,0.4,0.3,2.4,1.5,5.6c-1.1,0.6-2.1,1.4-3,2.1
						c-2.1-2-3.5-3.3-3.6-3.4c-0.8-0.8-5,3.1-5.5,4.7c-0.1,0.4,1.2,2.1,3.5,4.6c-0.8,1-1.5,2.1-2.1,3.3c-2.7-1-4.5-1.7-4.6-1.8
						c-1.1-0.4-3.5,4.8-3.3,6.5c0,0.5,1.9,1.5,5,2.8c-0.3,1.2-0.5,2.4-0.6,3.6c-2.9,0.1-4.8,0.1-5,0.1C72.7-19.2,72.4-13.5,73.2-12z
						 M108.5-30.3c7.9-0.2,14.5,6.1,14.7,14.1c0.2,7.9-6.1,14.5-14.1,14.7c-7.9,0.2-14.5-6.1-14.7-14.1
						C94.3-23.6,100.6-30.2,108.5-30.3z"/>
				</g>
				<g>
					
						<path fill="none" stroke="#1F80D0" stroke-width="2.5" stroke-linecap="round" stroke-linejoin="round" stroke-miterlimit="10" d="
						M978.3,18.8c0.3,0.6,3.7,1,9,1.1c0.3,2,0.8,4,1.3,6c-4.2,1.9-6.9,3.1-7.1,3.2c-1.6,0.7,1.5,9.2,3.5,10.9
						c0.6,0.5,3.8-0.5,8.8-2.4c1,1.7,2.1,3.3,3.4,4.8c-3.2,3.4-5.2,5.5-5.4,5.7c-1.2,1.3,4.8,8,7.4,8.8c0.7,0.2,3.3-1.9,7.2-5.6
						c1.7,1.2,3.4,2.3,5.2,3.3c-1.7,4.3-2.7,7-2.8,7.3c-0.6,1.7,7.5,5.5,10.2,5.2c0.7-0.1,2.3-3,4.5-7.9c1.9,0.5,3.8,0.8,5.8,1
						c0.1,4.7,0.2,7.5,0.2,7.8c0,1.8,9.1,2.2,11.4,1c0.6-0.3,1-3.7,1.1-9c2.5-0.4,4.9-0.9,7.2-1.7c1.7,3.6,2.8,5.8,3,6.2
						c1.2,2.7,11.3-1.1,10.7-4.1c-0.1-0.5-1.2-3.1-2.9-7.1c1.9-1.2,3.8-2.5,5.5-4c3,2.7,4.8,4.3,5.1,4.6c2.2,2.1,10.1-5.3,8.3-7.8
						c-0.3-0.4-2.3-2.4-5.4-5.5c1.4-1.9,2.7-3.9,3.8-6c3.7,1.3,6.1,2.1,6.5,2.3c2.8,1.1,7.2-8.8,4.7-10.4c-0.4-0.2-3-1.3-7.1-3
						c0.5-2.2,0.9-4.4,1.1-6.7c4-0.2,6.5-0.3,6.9-0.3c3-0.1,3.4-10.9,0.4-11.4c-0.5-0.1-3.3-0.1-7.7,0c-0.4-2.4-0.9-4.7-1.6-6.9
						c3.6-1.7,5.8-2.8,6.2-3c2.7-1.2-1.1-11.3-4.1-10.7c-0.5,0.1-3.1,1.2-7.1,2.9c-1.2-1.9-2.5-3.8-4-5.5c2.7-3,4.3-4.8,4.6-5.1
						c2.1-2.2-5.3-10.1-7.8-8.3c-0.4,0.3-2.4,2.3-5.5,5.4c-1.9-1.4-3.9-2.7-6-3.8c1.3-3.7,2.1-6.1,2.3-6.5c1.1-2.8-8.8-7.2-10.4-4.7
						c-0.2,0.4-1.3,3-3,7.1c-2.2-0.5-4.4-0.9-6.7-1.1c-0.2-4-0.3-6.5-0.3-6.9c-0.1-3-10.9-3.4-11.4-0.4c-0.1,0.5-0.1,3.3,0,7.7
						c-1.9,0.3-3.9,0.7-5.7,1.3c-1.9-4.2-3.1-6.9-3.2-7.1c-0.7-1.6-9.2,1.5-10.9,3.5c-0.5,0.6,0.5,3.8,2.4,8.8
						c-1.7,1-3.3,2.1-4.8,3.4c-3.4-3.2-5.5-5.2-5.7-5.4c-1.3-1.2-8,4.8-8.8,7.4c-0.2,0.7,1.9,3.3,5.6,7.2c-1.2,1.6-2.3,3.4-3.3,5.2
						c-4.3-1.7-7-2.7-7.3-2.8c-1.7-0.6-5.5,7.5-5.2,10.2c0.1,0.7,3,2.3,7.9,4.5c-0.5,1.9-0.8,3.8-1,5.8c-4.7,0.1-7.5,0.2-7.8,0.2
						C977.5,7.4,977.1,16.5,978.3,18.8z M1034.2-10.1c12.6-0.3,22.9,9.7,23.2,22.2c0.3,12.6-9.7,22.9-22.2,23.2
						c-12.6,0.3-22.9-9.7-23.2-22.2C1011.7,0.6,1021.6-9.8,1034.2-10.1z"/>
				</g>
				<g>
					
						<path fill="none" stroke="#1F80D0" stroke-width="2.5" stroke-linecap="round" stroke-linejoin="round" stroke-miterlimit="10" d="
						M-33.8,45.4c0.3,0.6,3.7,1,9,1.1c0.3,2,0.8,4,1.3,5.9c-4.2,1.9-6.8,3.1-7.1,3.2c-1.6,0.7,1.4,9.1,3.5,10.8
						c0.6,0.5,3.8-0.5,8.7-2.4c1,1.7,2.1,3.2,3.3,4.7c-3.2,3.4-5.2,5.4-5.3,5.6c-1.2,1.3,4.8,7.9,7.3,8.7c0.7,0.2,3.3-1.9,7.1-5.5
						c1.6,1.2,3.3,2.3,5.1,3.3c-1.6,4.3-2.7,7-2.8,7.2c-0.6,1.7,7.5,5.4,10.1,5.2c0.7-0.1,2.3-3,4.4-7.9c1.9,0.4,3.8,0.8,5.7,1
						c0.1,4.6,0.2,7.5,0.2,7.8c0,1.8,9,2.2,11.3,0.9c0.6-0.3,1-3.7,1.1-9c2.5-0.4,4.8-0.9,7.2-1.7c1.7,3.6,2.8,5.8,2.9,6.2
						c1.2,2.7,11.2-1.1,10.6-4c-0.1-0.4-1.2-3-2.9-7.1c1.9-1.2,3.8-2.5,5.5-4c2.9,2.6,4.8,4.3,5.1,4.6c2.1,2.1,10-5.3,8.2-7.8
						c-0.3-0.4-2.2-2.4-5.4-5.4c1.4-1.9,2.7-3.9,3.8-6c3.7,1.3,6,2.1,6.4,2.3c2.8,1.1,7.2-8.7,4.6-10.3c-0.4-0.2-3-1.3-7.1-2.9
						c0.5-2.2,0.9-4.4,1.1-6.7c3.9-0.2,6.4-0.3,6.8-0.3c3-0.1,3.3-10.8,0.4-11.3c-0.5-0.1-3.2-0.1-7.6,0c-0.4-2.4-0.9-4.7-1.6-6.9
						c3.6-1.7,5.8-2.8,6.2-2.9c2.7-1.2-1.1-11.2-4-10.6c-0.4,0.1-3,1.2-7.1,2.9c-1.2-1.9-2.5-3.8-4-5.5c2.6-2.9,4.3-4.8,4.6-5.1
						c2.1-2.1-5.3-10-7.8-8.2c-0.4,0.3-2.4,2.2-5.4,5.4c-1.9-1.4-3.9-2.7-6-3.8c1.3-3.7,2.1-6,2.3-6.4c1.1-2.8-8.7-7.2-10.3-4.6
						c-0.2,0.4-1.3,3-2.9,7.1c-2.2-0.5-4.4-0.9-6.7-1.1c-0.2-3.9-0.3-6.4-0.3-6.8c-0.1-3-10.8-3.3-11.3-0.4c-0.1,0.5-0.1,3.2,0,7.6
						c-1.9,0.3-3.8,0.7-5.7,1.3c-1.9-4.2-3.1-6.8-3.2-7.1C5-15-3.4-11.9-5.1-9.9c-0.5,0.6,0.5,3.8,2.4,8.7c-1.7,1-3.2,2.1-4.7,3.3
						C-10.8-1-12.9-3-13.1-3.2c-1.3-1.2-7.9,4.8-8.7,7.3c-0.2,0.7,1.9,3.3,5.5,7.1c-1.2,1.6-2.3,3.3-3.3,5.1c-4.3-1.6-7-2.7-7.2-2.8
						c-1.7-0.6-5.4,7.5-5.2,10.1c0.1,0.7,3,2.3,7.9,4.4c-0.4,1.9-0.8,3.8-1,5.7c-4.6,0.1-7.5,0.2-7.8,0.2
						C-34.6,34.2-35,43.1-33.8,45.4z M21.3,2.5c20.3-0.4,37.2,15.7,37.6,36c0.4,20.3-15.7,37.2-36,37.6s-37.2-15.7-37.6-36
						C-15.1,19.8,1,2.9,21.3,2.5z"/>
					
						<path fill="none" stroke="#1F80D0" stroke-width="2.5" stroke-linecap="round" stroke-linejoin="round" stroke-miterlimit="10" d="
						M22.6,62c12.5-0.3,22.5-10.7,22.2-23.2c-0.3-12.6-10.7-22.5-23.2-22.2S-0.9,27.2-0.6,39.8C-0.4,52.3,10,62.3,22.6,62z
						 M21.8,24.3c8.3-0.2,15.2,6.4,15.3,14.7c0.2,8.3-6.4,15.2-14.7,15.3c-8.3,0.2-15.2-6.4-15.3-14.7C6.9,31.3,13.5,24.4,21.8,24.3
						z"/>
				</g>
				<g>
					
						<path fill="none" stroke="#1F80D0" stroke-width="2.5" stroke-linecap="round" stroke-linejoin="round" stroke-miterlimit="10" d="
						M313.6,31.5c0.4,0.8,4.7,1.3,11.4,1.4c0.4,2.6,1,5.1,1.7,7.6c-5.4,2.4-8.7,3.9-9,4.1c-2.1,0.9,1.8,11.6,4.4,13.8
						c0.7,0.6,4.8-0.6,11.1-3.1c1.3,2.1,2.7,4.1,4.2,6c-4.1,4.3-6.6,6.9-6.8,7.2c-1.6,1.6,6.1,10.1,9.3,11.1
						c0.9,0.3,4.2-2.4,9.1-7.1c2.1,1.5,4.3,2.9,6.5,4.2c-2.1,5.5-3.4,8.9-3.5,9.2c-0.8,2.1,9.5,6.9,12.9,6.6c0.9-0.1,2.9-3.8,5.7-10
						c2.4,0.6,4.8,1,7.3,1.3c0.2,5.9,0.3,9.5,0.3,9.9c0,2.3,11.4,2.8,14.4,1.2c0.8-0.4,1.3-4.7,1.4-11.4c3.1-0.5,6.2-1.2,9.1-2.1
						c2.2,4.5,3.5,7.4,3.8,7.9c1.5,3.5,14.3-1.4,13.5-5.1c-0.1-0.6-1.5-3.9-3.7-9c2.5-1.5,4.8-3.2,7-5c3.7,3.4,6.1,5.5,6.5,5.9
						c2.7,2.6,12.7-6.7,10.5-9.9c-0.3-0.5-2.8-3-6.9-6.9c1.8-2.4,3.4-5,4.8-7.6c4.7,1.7,7.7,2.7,8.2,2.9c3.5,1.4,9.2-11.1,5.9-13.2
						c-0.5-0.3-3.8-1.7-9-3.7c0.6-2.8,1.2-5.6,1.4-8.5c5-0.3,8.2-0.4,8.7-0.4c3.8-0.1,4.3-13.7,0.4-14.4c-0.6-0.1-4.1-0.1-9.7,0
						c-0.5-3-1.1-5.9-2-8.8c4.5-2.2,7.4-3.5,7.9-3.8c3.5-1.5-1.4-14.3-5.1-13.5c-0.6,0.1-3.9,1.5-9,3.7c-1.5-2.5-3.2-4.8-5-7
						c3.4-3.7,5.5-6.1,5.9-6.5c2.6-2.7-6.7-12.7-9.9-10.5c-0.5,0.3-3,2.8-6.9,6.9c-2.4-1.8-5-3.4-7.6-4.8c1.7-4.7,2.7-7.7,2.9-8.2
						c1.4-3.5-11.1-9.2-13.2-5.9c-0.3,0.5-1.7,3.8-3.7,9c-2.8-0.6-5.6-1.2-8.5-1.4c-0.3-5-0.4-8.2-0.4-8.7
						c-0.1-3.8-13.7-4.3-14.4-0.4c-0.1,0.6-0.1,4.1,0,9.7c-2.5,0.4-4.9,0.9-7.2,1.6c-2.4-5.4-3.9-8.7-4.1-9
						c-0.9-2.1-11.6,1.8-13.8,4.4c-0.6,0.7,0.6,4.8,3.1,11.1c-2.1,1.3-4.1,2.7-6,4.2c-4.3-4.1-6.9-6.6-7.2-6.8
						c-1.6-1.6-10.1,6.1-11.1,9.3c-0.3,0.9,2.4,4.2,7.1,9.1c-1.5,2.1-2.9,4.3-4.2,6.5c-5.5-2.1-8.9-3.4-9.2-3.5
						c-2.1-0.8-6.9,9.5-6.6,12.9c0.1,0.9,3.8,2.9,10,5.7c-0.6,2.4-1,4.8-1.3,7.3c-5.9,0.2-9.5,0.3-9.9,0.3
						C312.6,17.1,312.1,28.5,313.6,31.5z M383.8-23.2c25.9-0.6,47.3,20,47.9,45.9c0.6,25.9-20,47.3-45.9,47.9s-47.3-20-47.9-45.9
						C337.4-1.2,357.9-22.7,383.8-23.2z"/>
					
						<path fill="none" stroke="#1F80D0" stroke-width="2.5" stroke-linecap="round" stroke-linejoin="round" stroke-miterlimit="10" d="
						M385.4,52.6c16-0.3,28.7-13.6,28.3-29.6c-0.3-16-13.6-28.7-29.6-28.3c-16,0.3-28.7,13.6-28.3,29.6
						C356.2,40.2,369.4,52.9,385.4,52.6z M384.4,4.5c10.6-0.2,19.3,8.2,19.5,18.7c0.2,10.6-8.2,19.3-18.7,19.5
						c-10.6,0.2-19.3-8.2-19.5-18.7C365.4,13.5,373.8,4.7,384.4,4.5z"/>
				</g>
				<g>
					
						<path fill="none" stroke="#1F80D0" stroke-width="2.5" stroke-linecap="round" stroke-linejoin="round" stroke-miterlimit="10" d="
						M85,58.2c0,0,0.3,11.5,3.6,14.7c0,0,12.3-3.8,12.1,12.5c0,0,8.1,5,15.6,3.8c0,0,3.9-18.6,16.2-5.2c0,0,8.8-7.5,10.9-11.8
						c0,0-10.8-12.3,3.9-16c0,0-0.7-11.2-5.2-15.4c0,0-14.3,2-11-11.4c0,0-5.9-4.2-15.6-3.8c0,0-1.2,11.8-15.8,5.1
						c0,0-7.3,3-10.6,10.9C89.1,41.6,98.8,48.5,85,58.2z M119.7,43.1c8,2,12.9,10.1,10.9,18.1c-2,8-10.1,12.9-18.1,10.9
						c-8-2-12.9-10.1-10.9-18.1C103.6,46,111.7,41.1,119.7,43.1z"/>
				</g>
				<g>
					
						<path fill="none" stroke="#1F80D0" stroke-width="2.5" stroke-linecap="round" stroke-linejoin="round" stroke-miterlimit="10" d="
						M548.4-3.1c0,0,5.8,6.5,9.3,6.8c0,0,5.3-8.2,13.1,1.4c0,0,7.1-1.1,10.9-5.4c0,0-6.8-12.7,6.8-10.9c0,0,1.4-8.6,0.5-12.2
						c0,0-12.3-1.9-5.5-11.2c0,0-5.9-6.2-10.5-6.4c0,0-7.3,8.1-11.9-1.2c0,0-5.5,0.4-10.9,5.4c0,0,5.1,7.4-6.7,10.6
						c0,0-2.8,5.3-0.9,11.5C542.7-14.7,551.7-15.4,548.4-3.1z M561.1-28.7c5.6-2.8,12.4-0.5,15.1,5.1c2.8,5.6,0.5,12.4-5.1,15.1
						c-5.6,2.8-12.4,0.5-15.1-5.1C553.2-19.2,555.5-26,561.1-28.7z"/>
				</g>
				<g>
					
						<path fill="none" stroke="#1F80D0" stroke-width="2.5" stroke-linecap="round" stroke-linejoin="round" stroke-miterlimit="10" d="
						M600.4-49.2c0.6,0.1,3.3,0.8,7.4,1.8c-0.3,1.8-0.5,3.7-0.7,5.5c-4.3,0.2-6.9,0.3-7.2,0.4c-1.7,0.9-3.1,10-0.2,9.6
						c0.6-0.1,3.4-0.2,7.6-0.3c0.1,1.1,0.3,2.3,0.5,3.4c-4.2,1.2-6.7,2-6.9,2.2c-1.5,1.3-0.6,10.4,2.1,9.4c0.6-0.2,3.2-1,7.3-2.2
						c0.5,1.3,1,2.6,1.6,3.8c-3.7,2.2-5.9,3.6-6.1,3.8c-1.1,1.6,2,10.2,4.4,8.5c0.5-0.4,2.9-1.8,6.5-3.9c1.1,1.5,2.2,3,3.4,4.4
						c-2.9,3.1-4.7,5.1-4.8,5.4c-0.6,1.9,4.8,9.3,6.6,6.9c0.4-0.5,2.3-2.5,5.2-5.6c0.9,0.7,1.8,1.4,2.8,2c-2.1,3.8-3.3,6.1-3.4,6.4
						c-0.1,1.9,6.9,7.8,8.1,5.1c0.3-0.6,1.6-3,3.7-6.7c1.2,0.6,2.5,1.1,3.8,1.6c-1.1,4.2-1.7,6.8-1.6,7c0.4,1.9,8.7,5.8,9.1,2.9
						c0.1-0.6,0.8-3.3,1.8-7.4c1.8,0.3,3.7,0.5,5.5,0.7c0.2,4.3,0.3,6.9,0.4,7.2c0.9,1.7,10,3.1,9.6,0.2c-0.1-0.6-0.2-3.4-0.3-7.6
						c1.4-0.1,2.7-0.4,4-0.6c1,3.4,1.6,5.6,1.8,6.1c1.5,3.7,9.3,1.1,8.6-1.4c-0.1-0.4-0.8-2.9-1.9-7c1.5-0.6,3.1-1.2,4.5-1.9
						c1.8,3.1,3,5,3.3,5.4c2.3,3.2,9.3-1.3,8-3.6c-0.2-0.3-1.5-2.6-3.5-6.2c1.7-1.2,3.4-2.6,5-4c2.6,2.4,4.3,4,4.7,4.3
						c3.1,2.4,8.5-3.9,6.7-5.7c-0.3-0.3-2.1-2.1-5.2-5c0.9-1.1,1.7-2.2,2.5-3.4c3.1,1.7,5.1,2.8,5.6,3c3.6,1.6,7.4-5.8,5.1-7.1
						c-0.3-0.2-2.6-1.5-6.2-3.6c0.7-1.5,1.3-3,1.9-4.5c3.4,0.9,5.6,1.4,6.1,1.5c3.9,0.6,5.6-7.5,3.1-8.2c-0.4-0.1-2.9-0.8-6.9-1.9
						c0.4-2.1,0.6-4.2,0.7-6.3c3.6-0.1,5.8-0.2,6.3-0.3c3.9-0.5,3.3-8.8,0.7-8.7c-0.4,0-3,0-7.2,0.1c-0.2-1.4-0.4-2.8-0.6-4.2
						c3.4-1,5.6-1.6,6.1-1.8c3.7-1.5,1.1-9.3-1.4-8.6c-0.4,0.1-2.9,0.8-7,1.9c-0.6-1.5-1.2-3.1-1.9-4.5c3.1-1.8,5-3,5.4-3.3
						c3.2-2.3-1.3-9.3-3.6-8c-0.3,0.2-2.6,1.5-6.2,3.5c-1.2-1.7-2.6-3.4-4-5c2.4-2.6,4-4.3,4.3-4.7c2.4-3.1-3.9-8.5-5.7-6.7
						c-0.3,0.3-2.1,2.1-5,5.2c-1.1-0.9-2.2-1.7-3.4-2.5c1.7-3.1,2.8-5.1,3-5.6c1.6-3.6-5.8-7.4-7.1-5.1c-0.2,0.3-1.5,2.6-3.6,6.2
						c-1.5-0.7-3-1.3-4.5-1.9c0.9-3.4,1.4-5.6,1.5-6.1c0.6-3.9-7.5-5.6-8.2-3.1c-0.1,0.4-0.8,2.9-1.9,6.9c-2.1-0.4-4.2-0.6-6.3-0.7
						c-0.1-3.6-0.2-5.8-0.3-6.3c-0.5-3.9-8.8-3.3-8.7-0.7c0,0.4,0,3,0.1,7.2c-1.2,0.1-2.4,0.3-3.6,0.5c-1.2-4.2-2-6.7-2.2-6.9
						c-1.3-1.5-10.4-0.6-9.4,2.1c0.2,0.6,1,3.2,2.2,7.3c-1.3,0.5-2.6,1-3.8,1.6c-2.2-3.7-3.6-5.9-3.8-6.1c-1.6-1.1-10.2,2-8.5,4.4
						c0.4,0.5,1.8,2.9,3.9,6.5c-1.5,1.1-3,2.2-4.4,3.4c-3.1-2.9-5.1-4.7-5.4-4.8c-1.9-0.6-9.3,4.8-6.9,6.6c0.5,0.4,2.5,2.3,5.6,5.2
						c-0.7,0.9-1.4,1.8-2,2.8c-3.8-2.1-6.1-3.3-6.4-3.4c-1.9-0.1-7.8,6.9-5.1,8.1c0.6,0.3,3,1.6,6.7,3.7c-0.6,1.2-1.1,2.5-1.6,3.8
						c-4.2-1.1-6.8-1.7-7-1.6C601.4-58,597.5-49.7,600.4-49.2z M652.8-39.3l-22.7,0.5c0.1-6.3,2.2-12.1,5.5-16.9L652.8-39.3z
						 M685.2-56.8c3.6,4.7,5.9,10.4,6.3,16.7l-22.7,0.5L685.2-56.8z M668.9-33.1l22.3-0.5c-0.9,5.7-3.3,11-6.9,15.2L668.9-33.1z
						 M653-32.7l-14.7,15.4c-3.8-4.1-6.4-9.2-7.6-14.9L653-32.7z M643.2-13l14.5-15.2l0.4,20.6C652.6-8,647.5-10,643.2-13z
						 M664.8-7.7l-0.4-20.6l15.2,14.5C675.3-10.6,670.3-8.4,664.8-7.7z M680.6-61.6L664-44.2l-0.5-24.5
						C670-68.2,675.9-65.6,680.6-61.6z M656.9-68.6l0.5,24.5L640-60.7C644.6-64.9,650.4-67.8,656.9-68.6z"/>
				</g>
			</g>
		</g>
	</g>
</g>
<g id="_x32__страница" display="none">
</g>
<g id="Сетка" display="none">
	<line display="inline" fill="none" x1="755.9" y1="-37" x2="755.9" y2="195"/>
</g>
</svg>
